<svg xmlns="http://www.w3.org/2000/svg" width="96" height="96" viewBox="0 0 96 96">
  <defs>
    <linearGradient id="quizBg" x1="0%" y1="0%" x2="100%" y2="100%">
      <stop offset="0%" style="stop-color:#d97706"/>
      <stop offset="100%" style="stop-color:#b45309"/>
    </linearGradient>
  </defs>

  <!-- Background -->
  <rect width="96" height="96" rx="19" fill="url(#quizBg)"/>

  <!-- Brain/Quiz icon -->
  <g transform="translate(24, 24)" fill="#ffffff">
    <!-- Brain outline left -->
    <path d="M24,4 C14,4 8,12 8,20 C8,28 12,32 16,34 L16,38 C16,40 18,42 20,42 L28,42 C30,42 32,40 32,38 L32,34 C36,32 40,28 40,20 C40,12 34,4 24,4 Z" fill="none" stroke="#ffffff" stroke-width="3"/>

    <!-- Question mark -->
    <path d="M24,14 C20,14 18,16 18,19 C18,20 19,21 20,21 C21,21 22,20 22,19 C22,18 23,17 24,17 C25,17 27,18 27,20 C27,22 25,23 24,25 L24,27" fill="none" stroke="#ffffff" stroke-width="3" stroke-linecap="round"/>

    <!-- Question mark dot -->
    <circle cx="24" cy="32" r="2"/>

    <!-- Lightbulb rays -->
    <line x1="24" y1="44" x2="24" y2="48" stroke="#ffffff" stroke-width="2" stroke-linecap="round"/>
    <line x1="14" y1="42" x2="10" y2="46" stroke="#ffffff" stroke-width="2" stroke-linecap="round"/>
    <line x1="34" y1="42" x2="38" y2="46" stroke="#ffffff" stroke-width="2" stroke-linecap="round"/>
  </g>
</svg>
