<?xml version="1.0" encoding="UTF-8"?>
<svg version="1.1" xmlns="http://www.w3.org/2000/svg" width="1200" height="1200">
<path d="M0 0 C1.43676199 0.1794088 2.87361434 0.35809516 4.31054688 0.53613281 C73.01474685 9.13531979 139.03386877 29.09965971 201 60 C202.0297998 60.51288574 203.05959961 61.02577148 204.12060547 61.55419922 C243.41932336 81.25574362 280.2980658 105.77524691 314 134 C314.75676025 134.62938477 314.75676025 134.62938477 315.52880859 135.27148438 C323.0571868 141.53560714 330.36754315 147.99079033 337.54248047 154.65576172 C338.94599244 155.95019001 340.36529883 157.22742854 341.78515625 158.50390625 C348.13647937 164.2262125 354.25716539 170.15250185 360.3125 176.1875 C361.06547363 176.93588135 361.81844727 177.6842627 362.59423828 178.45532227 C366.69414407 182.5665688 370.62271248 186.76768441 374.41186523 191.16674805 C376.67135871 193.7749781 379.02293458 196.28738472 381.375 198.8125 C386.49000206 204.35659827 391.28724722 210.10905902 396 216 C396.91076019 217.11905814 397.82225476 218.23751888 398.734375 219.35546875 C424.32457923 250.84383488 446.17534909 285.07929882 465 321 C465.49064941 321.93602051 465.98129883 322.87204102 466.48681641 323.83642578 C488.7436485 366.62020937 504.76032766 412.16497601 516 459 C516.27440918 460.13808105 516.54881836 461.27616211 516.83154297 462.44873047 C521.69942677 482.97090975 524.94545562 503.75505187 527.69146729 524.65447998 C527.88658462 526.13779631 528.08414538 527.62079507 528.28509521 529.10333252 C531.233887 550.90633656 531.30558324 572.79810897 531.36746979 594.75920868 C531.37483665 597.01253544 531.38669494 599.26580149 531.39935303 601.519104 C531.53222191 629.09929666 529.78450589 656.45339469 525.6875 683.75 C525.58395203 684.45472443 525.48040405 685.15944885 525.37371826 685.88552856 C515.81520889 750.76272307 495.21520441 812.42278111 466 871 C465.52062988 871.96276855 465.04125977 872.92553711 464.54736328 873.91748047 C445.52146568 911.85280456 421.2304552 947.47605877 394 980 C393.58572754 980.49918945 393.17145508 980.99837891 392.74462891 981.51269531 C386.63974736 988.86748411 380.3321359 995.98704737 373.80859375 1002.97265625 C371.46820262 1005.4814994 369.19724868 1008.04306933 366.9375 1010.625 C362.28175288 1015.81992372 357.36161379 1020.74783489 352.4375 1025.6875 C351.63368896 1026.49590332 350.82987793 1027.30430664 350.00170898 1028.13720703 C345.73066763 1032.39729812 341.38461187 1036.50010042 336.8112793 1040.43383789 C334.2087391 1042.68418097 331.70507963 1045.0299538 329.1875 1047.375 C323.64340173 1052.49000206 317.89094098 1057.28724722 312 1062 C310.88094186 1062.91076019 309.76248112 1063.82225476 308.64453125 1064.734375 C277.15616512 1090.32457923 242.92070118 1112.17534909 207 1131 C206.06397949 1131.49064941 205.12795898 1131.98129883 204.16357422 1132.48681641 C127.0422821 1172.60658857 37.14141406 1196.90785262 -50.109375 1197.203125 C-51.51735973 1197.21014757 -52.92534414 1197.21723438 -54.33332825 1197.22438049 C-58.80555686 1197.24377075 -63.27773358 1197.24881435 -67.75 1197.25 C-68.51200085 1197.25044186 -69.27400169 1197.25088371 -70.05909348 1197.25133896 C-92.84568898 1197.25826886 -115.37119103 1196.94346817 -138 1194 C-139.41524673 1193.82570058 -140.83061576 1193.65239177 -142.24609375 1193.47998047 C-164.05716659 1190.79740902 -185.58239206 1186.90876653 -207 1182 C-207.65166138 1181.85067017 -208.30332275 1181.70134033 -208.97473145 1181.54748535 C-231.12041883 1176.43480296 -252.59046321 1169.57225421 -274 1162 C-274.99670715 1161.64778381 -274.99670715 1161.64778381 -276.0135498 1161.28845215 C-294.86451711 1154.60206348 -313.00696578 1146.72196617 -331 1138 C-332.56790283 1137.24783203 -332.56790283 1137.24783203 -334.16748047 1136.48046875 C-349.5731794 1129.07205017 -364.36644372 1120.82883774 -379 1112 C-379.91410645 1111.4519873 -380.82821289 1110.90397461 -381.77001953 1110.33935547 C-406.48298439 1095.48478743 -429.9417924 1078.57533272 -452 1060 C-453.02841846 1059.14555958 -454.05707794 1058.29140922 -455.0859375 1057.4375 C-461.90155223 1051.75391166 -468.48713431 1045.86512746 -474.97265625 1039.80859375 C-477.4814994 1037.46820262 -480.04306933 1035.19724868 -482.625 1032.9375 C-487.81992372 1028.28175288 -492.74783489 1023.36161379 -497.6875 1018.4375 C-498.49590332 1017.63368896 -499.30430664 1016.82987793 -500.13720703 1016.00170898 C-504.39729812 1011.73066763 -508.50010042 1007.38461187 -512.43383789 1002.8112793 C-514.68418097 1000.2087391 -517.0299538 997.70507963 -519.375 995.1875 C-524.49000206 989.64340173 -529.28724722 983.89094098 -534 978 C-534.91076019 976.88094186 -535.82225476 975.76248112 -536.734375 974.64453125 C-562.32457923 943.15616512 -584.17534909 908.92070118 -603 873 C-603.49064941 872.06397949 -603.98129883 871.12795898 -604.48681641 870.16357422 C-626.7436485 827.37979063 -642.76032766 781.83502399 -654 735 C-654.41161377 733.29287842 -654.41161377 733.29287842 -654.83154297 731.55126953 C-659.69942677 711.02909025 -662.94545562 690.24494813 -665.69146729 669.34552002 C-665.88658462 667.86220369 -666.08414538 666.37920493 -666.28509521 664.89666748 C-672.18789172 621.25211569 -672.16130525 572.71912011 -666.27862549 529.07421875 C-665.97635672 526.82398835 -665.68695291 524.57228335 -665.39794922 522.3203125 C-658.10304487 466.17813599 -643.97677771 410.8432283 -621 359 C-620.3507959 357.53240234 -620.3507959 357.53240234 -619.68847656 356.03515625 C-609.10526669 332.25578915 -597.44789071 309.28950981 -584 287 C-583.4519873 286.08589355 -582.90397461 285.17178711 -582.33935547 284.22998047 C-567.48532197 259.51790489 -550.57798131 236.05496129 -532 214 C-531.13390387 212.95981082 -530.26803127 211.91943551 -529.40234375 210.87890625 C-523.56729245 203.89444822 -517.53772122 197.12489277 -511.34423828 190.45751953 C-510.04980999 189.05400756 -508.77257146 187.63470117 -507.49609375 186.21484375 C-501.7737875 179.86352063 -495.84749815 173.74283461 -489.8125 167.6875 C-489.06411865 166.93452637 -488.3157373 166.18155273 -487.54467773 165.40576172 C-483.4334312 161.30585593 -479.23231559 157.37728752 -474.83325195 153.58813477 C-472.2250219 151.32864129 -469.71261528 148.97706542 -467.1875 146.625 C-461.64340173 141.50999794 -455.89094098 136.71275278 -450 132 C-448.88094186 131.08923981 -447.76248112 130.17774524 -446.64453125 129.265625 C-415.15616512 103.67542077 -380.92070118 81.82465091 -345 63 C-344.06397949 62.50935059 -343.12795898 62.01870117 -342.16357422 61.51318359 C-278.75289028 28.52589665 -208.9026444 8.25160086 -138 0 C-136.82695313 -0.14953125 -135.65390625 -0.2990625 -134.4453125 -0.453125 C-90.82626693 -5.89378015 -43.56688328 -5.69077278 0 0 Z " fill="#FEFEFE" transform="translate(669,3)"/>
<path d="M0 0 C0.42740961 12.18416107 0.85060856 24.3684653 1.2710762 36.55286789 C1.37468892 39.55349125 1.47858801 42.55410462 1.58248901 45.55471802 C2.31088697 66.6259372 3.01800132 87.69688679 3.57421875 108.7734375 C3.59567711 109.57878622 3.61713547 110.38413494 3.63924408 111.21388817 C3.84086949 118.78124578 4.03807065 126.34863668 4.21534061 133.9166069 C4.54339239 147.74633759 5.08290057 161.49441901 6.29345703 175.27749634 C7.13019431 184.95360449 7.40502865 194.60502688 7.5625 204.3125 C7.62142471 207.60037008 7.68507709 210.88810358 7.75390625 214.17578125 C7.77014542 214.95570435 7.78638458 215.73562744 7.80311584 216.53918457 C7.92740668 221.72776201 8.27897995 226.86105254 8.76586914 232.02905273 C9.19302397 237.44933123 9.26220102 242.88337383 9.38842773 248.31756592 C9.62028637 258.0386141 9.9283255 267.70350462 11 277.375 C12.42177207 290.29856011 12.40892711 303.3177989 12.5703125 316.30615234 C11.92080941 331.51656146 11.92080941 331.51656146 18.125 344.5 C20.81643407 347.29723983 21.50775654 349.1719239 21.6875 353.0625 C21.37876876 358.28718248 19.58583919 360.32878369 16 364 C13.52219116 368.57236333 13.62817026 373.15167202 13.5078125 378.2265625 C13.44401295 380.19181323 13.38021071 382.15706388 13.31640625 384.12231445 C13.28562988 385.1766568 13.25485352 386.23099915 13.22314453 387.31729126 C13.05112567 393.114744 12.84310604 398.91085728 12.6328125 404.70703125 C12.58699036 405.97260361 12.54116821 407.23817596 12.49395752 408.542099 C11.878052 424.98394238 11.00845965 441.41300679 10.13124847 457.84264374 C10.00140865 460.28599172 9.87347696 462.72943223 9.74615479 465.1729126 C8.98069715 479.83047879 8.2127367 494.4931725 7.09765625 509.12890625 C7.03984985 510.00855545 6.98204346 510.88820465 6.92248535 511.79450989 C6.29314687 519.34708099 3.81626099 525.81092992 0.55859375 532.6015625 C-3.36083488 541.14768508 -3.70159139 552.67824436 -0.8359375 561.640625 C2.56766416 568.72709821 6.49390968 573.4938665 14.00068665 576.4684906 C21.25186087 578.39618605 28.1584768 576.74710504 34.98828125 574.18359375 C35.80618637 573.89139954 36.62409149 573.59920532 37.46678162 573.29815674 C40.08737862 572.35876282 42.69966661 571.39824874 45.3125 570.4375 C47.11232016 569.78900482 48.91277952 569.14228098 50.71386719 568.49731445 C54.2306502 567.23731844 57.74521929 565.97144846 61.25830078 564.70117188 C67.06071889 562.61050672 72.89355493 560.62198186 78.75 558.6875 C79.96876831 558.28132446 79.96876831 558.28132446 81.2121582 557.86694336 C89.66343918 555.07412694 98.91588328 552.71317213 107.4375 556.625 C112.15180351 559.40849729 115.02437971 562.86292698 117.3125 567.875 C119.73466706 578.88485025 115.62182142 588.25830828 109.75390625 597.5234375 C101.81373027 608.7351782 91.90327885 617.90523869 78.06054688 620.34130859 C75.0010317 620.8459496 71.93838196 621.32951574 68.875 621.81005859 C54.71524793 624.09871057 39.43538277 628.48533843 30 640 C23.65908209 650.49356237 20.64782681 661.08522189 20.6875 673.3125 C20.67138672 674.29412109 20.65527344 675.27574219 20.63867188 676.28710938 C20.63471341 682.26835141 21.37281203 687.21235453 23.45239258 692.83276367 C24.07090322 695.28060984 23.80924042 696.63873647 23 699 C-33.01128804 707.72217068 -33.01128804 707.72217068 -43.6875 703 C-51.56809 699.80381882 -59.09999416 698.15741142 -67.4765625 700.7734375 C-71.32712111 702.52369141 -73.79127914 704.31661388 -76 708 C-76.84548435 713.04243818 -76.64597231 717.60039333 -74.5 722.25 C-58.97054139 739.33240447 -33.93793828 749.20715643 -11.9375 754.5625 C-11.12974121 754.76053223 -10.32198242 754.95856445 -9.48974609 755.16259766 C-6.66797083 755.82343112 -3.84013943 756.42274117 -1 757 C-0.36534821 757.12955078 0.26930359 757.25910156 0.92318726 757.39257812 C12.90315544 759.77798791 24.49043579 760.49008433 36.6875 760.375 C37.5739621 760.37034729 38.46042419 760.36569458 39.37374878 760.36090088 C65.84974471 760.19939154 91.42981712 756.96281617 117.34277344 751.72460938 C120.57996701 751.08322149 123.81923793 750.4877506 127.0703125 749.921875 C142.1544482 747.26070954 156.99916816 743.68957313 171.875 740.0625 C172.91840546 739.80942078 173.96181091 739.55634155 175.03683472 739.29559326 C188.04716319 736.13029294 200.90328656 732.65328798 213.69674683 728.70327759 C216.64132122 727.80417835 219.59672151 726.9452952 222.55400085 726.08909607 C231.87538371 723.38817524 241.10611105 720.44358755 250.3125 717.375 C251.08226166 717.11910095 251.85202332 716.8632019 252.64511108 716.59954834 C269.10347159 711.11081792 285.24406933 704.92727016 301.25 698.2265625 C307.47740069 695.64546879 313.56401358 693.52443768 320.05126953 691.71020508 C343.11755315 685.17685881 362.54274104 672.72751399 382 659 C382.67289063 658.53335938 383.34578125 658.06671875 384.0390625 657.5859375 C392.78086217 651.46282672 400.265824 644.0047442 407.8125 636.5 C408.30154816 636.0148996 408.79059631 635.52979919 409.29446411 635.02999878 C415.98464535 628.36572719 422.1379461 621.40469966 428 614 C429.07288806 612.67600391 430.14695832 611.35296419 431.22265625 610.03125 C432.16976711 608.85456595 433.11638717 607.67748667 434.0625 606.5 C434.57216309 605.87125977 435.08182617 605.24251953 435.60693359 604.59472656 C438.67948529 600.77175387 441.43586461 596.85704314 444.125 592.75 C447.42153582 588.12531442 449.95096601 586.80544286 455.42578125 585.6484375 C468.50933023 582.3527332 478.12653365 570.10205767 486 560 C487.17175781 558.55173828 487.17175781 558.55173828 488.3671875 557.07421875 C504.10201427 537.29257551 516.05521093 514.64183555 527.04345703 491.96191406 C528.01243493 489.97449539 529.0034589 487.9991304 529.99609375 486.0234375 C544.72391333 456.29302558 555.22031652 424.57885964 565.94067383 393.25109863 C594.89431094 308.64213684 594.89431094 308.64213684 622 275 C622.43844238 274.45472656 622.87688477 273.90945313 623.32861328 273.34765625 C638.83432113 254.18683758 659.77303286 238.0779314 685 235 C688.45971209 234.88803637 691.91397229 234.90540773 695.375 234.9375 C696.30183594 234.94201172 697.22867188 234.94652344 698.18359375 234.95117188 C700.45579709 234.96288426 702.72786388 234.97928628 705 235 C741.39939889 295.80840755 761.95536035 366.09064329 771 436 C771.11472656 436.8780127 771.22945312 437.75602539 771.34765625 438.66064453 C774.06268366 459.8266889 774.20448744 481.06245771 774.1875 502.375 C774.18722809 503.65791931 774.18695618 504.94083862 774.18667603 506.26263428 C774.16849 524.91567673 773.95992127 543.43371882 772 562 C771.8875293 563.0823291 771.77505859 564.1646582 771.65917969 565.27978516 C770.44757547 576.56639579 768.85625514 587.6888455 766.45654297 598.78857422 C765.90328595 601.46846838 765.40585795 604.15652118 764.91015625 606.84765625 C760.94492106 628.31238593 755.93859937 649.29922681 749 670 C748.65485352 671.04720215 748.30970703 672.0944043 747.95410156 673.17333984 C725.93834413 739.81793889 692.48286058 802.87958274 646.453125 856.14453125 C644.01053637 858.98773553 641.65782084 861.88882623 639.3125 864.8125 C636.11831705 868.74117422 632.78945732 872.37089272 629.1171875 875.85546875 C627.26766941 877.7288736 625.5628737 879.64596061 623.84765625 881.640625 C619.63097302 886.49597874 615.11891875 891.02779572 610.5625 895.5625 C609.75490234 896.37396484 608.94730469 897.18542969 608.11523438 898.02148438 C603.7962353 902.33352293 599.40314675 906.49027201 594.77563477 910.46948242 C592.36198593 912.54993953 590.02797985 914.71287709 587.6875 916.875 C582.28343362 921.79181449 576.72481413 926.46285127 571 931 C570.35675781 931.51046875 569.71351563 932.0209375 569.05078125 932.546875 C510.26509661 979.05384917 442.0002624 1016.07019151 368.98828125 1034.48779297 C366.85817918 1035.03653488 364.74220263 1035.62615017 362.625 1036.22265625 C350.28532843 1039.65875385 337.807561 1042.10400495 325.21289062 1044.40917969 C322.15509101 1044.97148022 319.10074825 1045.54961463 316.046875 1046.1328125 C286.45743388 1051.73652614 256.7229215 1053.3564146 226.65600586 1053.26074219 C223.02945996 1053.24931614 219.40320659 1053.2561648 215.77667046 1053.26761055 C192.55618278 1053.32998451 169.7427783 1051.93586811 146.75 1048.625 C145.98250427 1048.51639648 145.21500854 1048.40779297 144.42425537 1048.29589844 C133.31900954 1046.72119908 122.28223439 1044.97806912 111.33251953 1042.52246094 C108.7757086 1041.94976098 106.21429638 1041.40078081 103.65234375 1040.8515625 C18.81806388 1022.4161342 -63.42541975 982.25632324 -129.1484375 925.44921875 C-131.96857524 923.02699086 -134.84764607 920.69768269 -137.75 918.375 C-141.98786525 914.93058122 -145.86421539 911.28232378 -149.63671875 907.3359375 C-151.60580697 905.38963211 -153.60713763 903.58953701 -155.703125 901.78515625 C-160.36090246 897.74404838 -164.71474696 893.43237901 -169.0625 889.0625 C-170.2081543 887.92264648 -170.2081543 887.92264648 -171.37695312 886.75976562 C-175.56434403 882.56521067 -179.58511673 878.28491336 -183.4519043 873.79321289 C-185.53961136 871.37494947 -187.70728309 869.03403531 -189.875 866.6875 C-194.7919433 861.28329205 -199.46088689 855.72337421 -204 850 C-204.51578613 849.35144043 -205.03157227 848.70288086 -205.56298828 848.03466797 C-214.0906893 837.28085036 -222.24100069 826.32082282 -230 815 C-230.4326416 814.37029297 -230.8652832 813.74058594 -231.31103516 813.09179688 C-266.06193378 762.30715671 -294.17679394 704.35482316 -308.43701172 644.30566406 C-309.22589986 641.07484898 -310.15035051 637.88538881 -311.0625 634.6875 C-313.78380335 624.56198377 -315.52675297 614.21596407 -317.44482422 603.91503906 C-317.89565052 601.54790361 -318.36978282 599.19100905 -318.87890625 596.8359375 C-325.66061572 565.3773271 -326.42481913 532.68714917 -326.375 500.625 C-326.37476082 499.93548752 -326.37452164 499.24597504 -326.37427521 498.53556824 C-326.36393615 474.83417889 -325.42249863 451.47925392 -322 428 C-321.88873779 427.22603882 -321.77747559 426.45207764 -321.6628418 425.65466309 C-318.75720129 405.56126319 -315.06881137 385.66986112 -310 366 C-309.67660645 364.73567139 -309.67660645 364.73567139 -309.34667969 363.44580078 C-299.16975564 324.35609481 -284.0904713 287.04305791 -266 251 C-265.53851563 250.07977051 -265.07703125 249.15954102 -264.6015625 248.21142578 C-250.4452519 220.19372772 -233.0060942 193.94513257 -214 169 C-213.26789307 168.03827881 -213.26789307 168.03827881 -212.52099609 167.05712891 C-203.16469857 154.82842546 -193.14797858 143.19022812 -182.66796875 131.9140625 C-180.66767745 129.7292641 -178.72603873 127.52310552 -176.796875 125.27734375 C-172.43834688 120.27860324 -167.76084452 115.61469669 -163.0625 110.9375 C-161.77956055 109.64875977 -161.77956055 109.64875977 -160.47070312 108.33398438 C-156.02737683 103.89743661 -151.5214252 99.60428263 -146.75805664 95.51293945 C-144.34899797 93.43976398 -142.02192362 91.2815282 -139.6875 89.125 C-134.28343362 84.20818551 -128.72481413 79.53714873 -123 75 C-122.35675781 74.48953125 -121.71351563 73.9790625 -121.05078125 73.453125 C-97.87066948 55.11470016 -73.73564505 38.56861298 -48 24 C-47.18660156 23.53916016 -46.37320312 23.07832031 -45.53515625 22.60351562 C-5.39807243 0 -5.39807243 0 0 0 Z " fill="#6CCEF5" transform="translate(376,97)"/>
<path d="M0 0 C1.43676199 0.1794088 2.87361434 0.35809516 4.31054688 0.53613281 C73.01474685 9.13531979 139.03386877 29.09965971 201 60 C202.0297998 60.51288574 203.05959961 61.02577148 204.12060547 61.55419922 C243.41932336 81.25574362 280.2980658 105.77524691 314 134 C314.75676025 134.62938477 314.75676025 134.62938477 315.52880859 135.27148438 C323.0571868 141.53560714 330.36754315 147.99079033 337.54248047 154.65576172 C338.94599244 155.95019001 340.36529883 157.22742854 341.78515625 158.50390625 C348.13647937 164.2262125 354.25716539 170.15250185 360.3125 176.1875 C361.06547363 176.93588135 361.81844727 177.6842627 362.59423828 178.45532227 C366.69414407 182.5665688 370.62271248 186.76768441 374.41186523 191.16674805 C376.67135871 193.7749781 379.02293458 196.28738472 381.375 198.8125 C386.49000206 204.35659827 391.28724722 210.10905902 396 216 C396.91076019 217.11905814 397.82225476 218.23751888 398.734375 219.35546875 C424.32457923 250.84383488 446.17534909 285.07929882 465 321 C465.49064941 321.93602051 465.98129883 322.87204102 466.48681641 323.83642578 C488.7436485 366.62020937 504.76032766 412.16497601 516 459 C516.27440918 460.13808105 516.54881836 461.27616211 516.83154297 462.44873047 C521.69942677 482.97090975 524.94545562 503.75505187 527.69146729 524.65447998 C527.88658462 526.13779631 528.08414538 527.62079507 528.28509521 529.10333252 C531.233887 550.90633656 531.30558324 572.79810897 531.36746979 594.75920868 C531.37483665 597.01253544 531.38669494 599.26580149 531.39935303 601.519104 C531.53222191 629.09929666 529.78450589 656.45339469 525.6875 683.75 C525.58395203 684.45472443 525.48040405 685.15944885 525.37371826 685.88552856 C515.81520889 750.76272307 495.21520441 812.42278111 466 871 C465.52062988 871.96276855 465.04125977 872.92553711 464.54736328 873.91748047 C445.52146568 911.85280456 421.2304552 947.47605877 394 980 C393.58572754 980.49918945 393.17145508 980.99837891 392.74462891 981.51269531 C386.63974736 988.86748411 380.3321359 995.98704737 373.80859375 1002.97265625 C371.46820262 1005.4814994 369.19724868 1008.04306933 366.9375 1010.625 C362.28175288 1015.81992372 357.36161379 1020.74783489 352.4375 1025.6875 C351.63368896 1026.49590332 350.82987793 1027.30430664 350.00170898 1028.13720703 C345.73066763 1032.39729812 341.38461187 1036.50010042 336.8112793 1040.43383789 C334.2087391 1042.68418097 331.70507963 1045.0299538 329.1875 1047.375 C323.64340173 1052.49000206 317.89094098 1057.28724722 312 1062 C310.88094186 1062.91076019 309.76248112 1063.82225476 308.64453125 1064.734375 C277.15616512 1090.32457923 242.92070118 1112.17534909 207 1131 C206.06397949 1131.49064941 205.12795898 1131.98129883 204.16357422 1132.48681641 C127.0422821 1172.60658857 37.14141406 1196.90785262 -50.109375 1197.203125 C-51.51735973 1197.21014757 -52.92534414 1197.21723438 -54.33332825 1197.22438049 C-58.80555686 1197.24377075 -63.27773358 1197.24881435 -67.75 1197.25 C-68.51200085 1197.25044186 -69.27400169 1197.25088371 -70.05909348 1197.25133896 C-92.84568898 1197.25826886 -115.37119103 1196.94346817 -138 1194 C-139.41524673 1193.82570058 -140.83061576 1193.65239177 -142.24609375 1193.47998047 C-164.05716659 1190.79740902 -185.58239206 1186.90876653 -207 1182 C-207.65166138 1181.85067017 -208.30332275 1181.70134033 -208.97473145 1181.54748535 C-231.12041883 1176.43480296 -252.59046321 1169.57225421 -274 1162 C-274.99670715 1161.64778381 -274.99670715 1161.64778381 -276.0135498 1161.28845215 C-294.86451711 1154.60206348 -313.00696578 1146.72196617 -331 1138 C-332.56790283 1137.24783203 -332.56790283 1137.24783203 -334.16748047 1136.48046875 C-349.5731794 1129.07205017 -364.36644372 1120.82883774 -379 1112 C-379.91410645 1111.4519873 -380.82821289 1110.90397461 -381.77001953 1110.33935547 C-406.48298439 1095.48478743 -429.9417924 1078.57533272 -452 1060 C-453.02841846 1059.14555958 -454.05707794 1058.29140922 -455.0859375 1057.4375 C-461.90155223 1051.75391166 -468.48713431 1045.86512746 -474.97265625 1039.80859375 C-477.4814994 1037.46820262 -480.04306933 1035.19724868 -482.625 1032.9375 C-487.81992372 1028.28175288 -492.74783489 1023.36161379 -497.6875 1018.4375 C-498.49590332 1017.63368896 -499.30430664 1016.82987793 -500.13720703 1016.00170898 C-504.39729812 1011.73066763 -508.50010042 1007.38461187 -512.43383789 1002.8112793 C-514.68418097 1000.2087391 -517.0299538 997.70507963 -519.375 995.1875 C-524.49000206 989.64340173 -529.28724722 983.89094098 -534 978 C-534.91076019 976.88094186 -535.82225476 975.76248112 -536.734375 974.64453125 C-562.32457923 943.15616512 -584.17534909 908.92070118 -603 873 C-603.49064941 872.06397949 -603.98129883 871.12795898 -604.48681641 870.16357422 C-626.7436485 827.37979063 -642.76032766 781.83502399 -654 735 C-654.41161377 733.29287842 -654.41161377 733.29287842 -654.83154297 731.55126953 C-659.69942677 711.02909025 -662.94545562 690.24494813 -665.69146729 669.34552002 C-665.88658462 667.86220369 -666.08414538 666.37920493 -666.28509521 664.89666748 C-672.18789172 621.25211569 -672.16130525 572.71912011 -666.27862549 529.07421875 C-665.97635672 526.82398835 -665.68695291 524.57228335 -665.39794922 522.3203125 C-658.10304487 466.17813599 -643.97677771 410.8432283 -621 359 C-620.3507959 357.53240234 -620.3507959 357.53240234 -619.68847656 356.03515625 C-609.10526669 332.25578915 -597.44789071 309.28950981 -584 287 C-583.4519873 286.08589355 -582.90397461 285.17178711 -582.33935547 284.22998047 C-567.48532197 259.51790489 -550.57798131 236.05496129 -532 214 C-531.13390387 212.95981082 -530.26803127 211.91943551 -529.40234375 210.87890625 C-523.56729245 203.89444822 -517.53772122 197.12489277 -511.34423828 190.45751953 C-510.04980999 189.05400756 -508.77257146 187.63470117 -507.49609375 186.21484375 C-501.7737875 179.86352063 -495.84749815 173.74283461 -489.8125 167.6875 C-489.06411865 166.93452637 -488.3157373 166.18155273 -487.54467773 165.40576172 C-483.4334312 161.30585593 -479.23231559 157.37728752 -474.83325195 153.58813477 C-472.2250219 151.32864129 -469.71261528 148.97706542 -467.1875 146.625 C-461.64340173 141.50999794 -455.89094098 136.71275278 -450 132 C-448.88094186 131.08923981 -447.76248112 130.17774524 -446.64453125 129.265625 C-415.15616512 103.67542077 -380.92070118 81.82465091 -345 63 C-344.06397949 62.50935059 -343.12795898 62.01870117 -342.16357422 61.51318359 C-278.75289028 28.52589665 -208.9026444 8.25160086 -138 0 C-136.82695313 -0.14953125 -135.65390625 -0.2990625 -134.4453125 -0.453125 C-90.82626693 -5.89378015 -43.56688328 -5.69077278 0 0 Z M-130 24 C-131.09135254 24.1227832 -132.18270508 24.24556641 -133.30712891 24.37207031 C-138.96738318 25.02862002 -144.60859872 25.77856173 -150.24658203 26.60400391 C-153.09777331 27.01406174 -155.95234229 27.38867084 -158.80859375 27.76171875 C-255.12226252 40.87893602 -349.2792933 83.45311449 -425 144 C-425.85126465 144.67675781 -425.85126465 144.67675781 -426.71972656 145.3671875 C-429.85271985 147.86562532 -432.93531511 150.41846481 -436 153 C-437.04018918 153.86609613 -438.08056449 154.73196873 -439.12109375 155.59765625 C-446.08177484 161.41267363 -452.83551939 167.4155138 -459.47753906 173.59082031 C-461.02686165 175.02486297 -462.5861996 176.44723342 -464.1484375 177.8671875 C-474.26803254 187.08736547 -484.38283631 196.49556103 -493.23828125 206.95703125 C-495.09071375 209.10519577 -497.00836554 211.18605697 -498.93847656 213.2644043 C-504.55173263 219.31363216 -509.84319584 225.5539948 -515 232 C-515.91076019 233.11905814 -516.82225476 234.23751888 -517.734375 235.35546875 C-536.02147607 257.85511224 -552.61884844 281.80912977 -567 307 C-567.37608398 307.65742188 -567.75216797 308.31484375 -568.13964844 308.9921875 C-571.15737367 314.29353011 -574.09363968 319.63692278 -577 325 C-577.46277344 325.85029785 -577.92554688 326.7005957 -578.40234375 327.57666016 C-616.31016647 397.57514987 -638.82719266 476.58509115 -644 556 C-644.0427002 556.64106689 -644.08540039 557.28213379 -644.12939453 557.94262695 C-644.94440878 570.49183037 -645.15668442 583.00635423 -645.13037109 595.58007812 C-645.12499302 598.6289565 -645.13036489 601.67768844 -645.13671875 604.7265625 C-645.14456852 622.35927989 -644.0984202 639.72040014 -642.25 657.25 C-642.16418671 658.06849426 -642.07837341 658.88698853 -641.98995972 659.73028564 C-640.3395354 675.28873987 -637.99995771 690.63921122 -635 706 C-634.7922998 707.06911621 -634.58459961 708.13823242 -634.37060547 709.23974609 C-630.57173913 728.57267884 -626.05209342 747.60276273 -619.87744141 766.31933594 C-618.92450942 769.23063066 -617.99939845 772.1500857 -617.07421875 775.0703125 C-594.94401456 844.1028736 -559.39854789 908.33364341 -513 964 C-512.51934082 964.57975586 -512.03868164 965.15951172 -511.54345703 965.75683594 C-505.35635726 973.21040107 -498.95365167 980.42798145 -492.36181641 987.52490234 C-491.01615564 988.98250047 -489.68569478 990.45408362 -488.35546875 991.92578125 C-479.43585102 1001.78568079 -470.27048228 1011.574015 -460.109375 1020.171875 C-457.81363233 1022.16151865 -455.59696752 1024.22232233 -453.37768555 1026.29638672 C-447.12178404 1032.13932463 -440.69391207 1037.65920804 -434 1043 C-432.87030792 1043.92091185 -431.74144468 1044.84284111 -430.61328125 1045.765625 C-406.1095358 1065.72501538 -379.53922297 1083.51306836 -352 1099 C-351.02337402 1099.55075195 -350.04674805 1100.10150391 -349.04052734 1100.66894531 C-320.40911806 1116.70472744 -290.85018249 1129.87423837 -260 1141 C-258.97310059 1141.37092773 -257.94620117 1141.74185547 -256.88818359 1142.12402344 C-209.77044603 1158.94056637 -159.69096941 1167.64906313 -110 1172 C-108.33868042 1172.14791992 -108.33868042 1172.14791992 -106.64379883 1172.29882812 C-95.91847746 1173.13822051 -85.21188923 1173.15213253 -74.45922852 1173.13037109 C-71.33539917 1173.12503909 -68.21171547 1173.13033207 -65.08789062 1173.13671875 C-46.49458644 1173.14479912 -28.09964149 1172.36435233 -9.625 1170.25 C-8.48343948 1170.12177856 -8.48343948 1170.12177856 -7.31881714 1169.9909668 C8.22764298 1168.23349009 23.60404165 1165.78897219 39 1163 C40.89448706 1162.66771673 42.78901529 1162.33566799 44.68359375 1162.00390625 C63.52766563 1158.632855 82.06411899 1153.95128983 100.22851562 1147.91308594 C103.42180127 1146.86103446 106.62482702 1145.84146268 109.828125 1144.8203125 C177.8560272 1122.91362841 241.25990313 1087.99668612 296.28076172 1042.41503906 C297.81171112 1041.15497335 299.35980647 1039.91580531 300.91015625 1038.6796875 C307.74109227 1033.22701103 314.09084578 1027.33548429 320.44140625 1021.33984375 C323.24822669 1018.69252692 326.10357968 1016.1119282 329 1013.5625 C337.86966876 1005.62882644 346.52824986 997.17426559 354.20703125 988.07421875 C356.18230264 985.78910086 358.23195464 983.58634593 360.29418945 981.37988281 C366.13812494 975.12348732 371.65856508 968.69471793 377 962 C377.92091185 960.87030792 378.84284111 959.74144468 379.765625 958.61328125 C399.72318161 934.11178709 417.52226434 907.54182349 433 880 C433.56138672 879.00210449 434.12277344 878.00420898 434.70117188 876.97607422 C458.77894165 833.87364521 478.03118925 787.05354402 489.53076172 738.93847656 C490.00960276 736.96032992 490.51817184 734.99193648 491.03515625 733.0234375 C502.54264753 688.95392746 507.22139101 643.07796065 507.25 597.625 C507.25100708 596.50605347 507.25201416 595.38710693 507.25305176 594.23425293 C507.24121537 574.66731251 506.27507694 555.42675103 504 536 C503.84309117 534.62615879 503.6863544 533.25229792 503.52978516 531.87841797 C500.8692726 508.77561644 496.9136109 486.11249823 491.57617188 463.48242188 C491.06469946 461.27875596 490.57966394 459.07211699 490.109375 456.859375 C478.65530718 403.87277819 455.77663278 351.4520957 428 305 C427.46810059 304.10925781 426.93620117 303.21851563 426.38818359 302.30078125 C411.12475438 276.89686304 393.97380934 252.76370456 375 230 C374.51934082 229.42024414 374.03868164 228.84048828 373.54345703 228.24316406 C367.35501377 220.78798044 360.95077474 213.56907876 354.35742188 206.47070312 C353.02457306 205.02662376 351.707424 203.56810443 350.390625 202.109375 C341.12661411 191.85866473 331.57689278 181.64851339 321.0078125 172.7265625 C318.87032577 170.88849026 316.80324677 168.98202516 314.73779297 167.0637207 C308.68804803 161.44936685 302.44600573 156.15850987 296 151 C294.86916043 150.07759625 293.73898485 149.15437804 292.609375 148.23046875 C223.42247271 91.88681229 140.20742599 52.49728868 -6 24 C-7.26046143 23.85353027 -7.26046143 23.85353027 -8.54638672 23.70410156 C-48.71999217 19.17857119 -89.85207908 19.47525074 -130 24 Z " fill="#01A650" transform="translate(669,3)"/>
<path d="M0 0 C0.42740961 12.18416107 0.85060856 24.3684653 1.2710762 36.55286789 C1.37468892 39.55349125 1.47858801 42.55410462 1.58248901 45.55471802 C2.31088697 66.6259372 3.01800132 87.69688679 3.57421875 108.7734375 C3.59567711 109.57878622 3.61713547 110.38413494 3.63924408 111.21388817 C3.84086949 118.78124578 4.03807065 126.34863668 4.21534061 133.9166069 C4.54339239 147.74633759 5.08290057 161.49441901 6.29345703 175.27749634 C7.13019431 184.95360449 7.40502865 194.60502688 7.5625 204.3125 C7.62142471 207.60037008 7.68507709 210.88810358 7.75390625 214.17578125 C7.77014542 214.95570435 7.78638458 215.73562744 7.80311584 216.53918457 C7.92740668 221.72776201 8.27897995 226.86105254 8.76586914 232.02905273 C9.19302397 237.44933123 9.26220102 242.88337383 9.38842773 248.31756592 C9.62028637 258.0386141 9.9283255 267.70350462 11 277.375 C12.42177207 290.29856011 12.40892711 303.3177989 12.5703125 316.30615234 C11.92080941 331.51656146 11.92080941 331.51656146 18.125 344.5 C20.81643407 347.29723983 21.50775654 349.1719239 21.6875 353.0625 C21.37876876 358.28718248 19.58583919 360.32878369 16 364 C13.52219116 368.57236333 13.62817026 373.15167202 13.5078125 378.2265625 C13.44401295 380.19181323 13.38021071 382.15706388 13.31640625 384.12231445 C13.28562988 385.1766568 13.25485352 386.23099915 13.22314453 387.31729126 C13.05112567 393.114744 12.84310604 398.91085728 12.6328125 404.70703125 C12.58699036 405.97260361 12.54116821 407.23817596 12.49395752 408.542099 C11.878052 424.98394238 11.00845965 441.41300679 10.13124847 457.84264374 C10.00140865 460.28599172 9.87347696 462.72943223 9.74615479 465.1729126 C8.98069715 479.83047879 8.2127367 494.4931725 7.09765625 509.12890625 C7.03984985 510.00855545 6.98204346 510.88820465 6.92248535 511.79450989 C6.29314687 519.34708099 3.81626099 525.81092992 0.55859375 532.6015625 C-3.36083488 541.14768508 -3.70159139 552.67824436 -0.8359375 561.640625 C2.56766416 568.72709821 6.49390968 573.4938665 14.00068665 576.4684906 C21.25186087 578.39618605 28.1584768 576.74710504 34.98828125 574.18359375 C35.80618637 573.89139954 36.62409149 573.59920532 37.46678162 573.29815674 C40.08737862 572.35876282 42.69966661 571.39824874 45.3125 570.4375 C47.11232016 569.78900482 48.91277952 569.14228098 50.71386719 568.49731445 C54.2306502 567.23731844 57.74521929 565.97144846 61.25830078 564.70117188 C67.06071889 562.61050672 72.89355493 560.62198186 78.75 558.6875 C79.96876831 558.28132446 79.96876831 558.28132446 81.2121582 557.86694336 C89.66343918 555.07412694 98.91588328 552.71317213 107.4375 556.625 C112.15180351 559.40849729 115.02437971 562.86292698 117.3125 567.875 C119.73466706 578.88485025 115.62182142 588.25830828 109.75390625 597.5234375 C101.81373027 608.7351782 91.90327885 617.90523869 78.06054688 620.34130859 C75.0010317 620.8459496 71.93838196 621.32951574 68.875 621.81005859 C54.71524793 624.09871057 39.43538277 628.48533843 30 640 C23.65908209 650.49356237 20.64782681 661.08522189 20.6875 673.3125 C20.67138672 674.29412109 20.65527344 675.27574219 20.63867188 676.28710938 C20.63471341 682.26835141 21.37281203 687.21235453 23.45239258 692.83276367 C24.07090322 695.28060984 23.80924042 696.63873647 23 699 C-33.01128804 707.72217068 -33.01128804 707.72217068 -43.6875 703 C-51.56809 699.80381882 -59.09999416 698.15741142 -67.4765625 700.7734375 C-71.32712111 702.52369141 -73.79127914 704.31661388 -76 708 C-76.84548435 713.04243818 -76.64597231 717.60039333 -74.5 722.25 C-58.97054139 739.33240447 -33.93793828 749.20715643 -11.9375 754.5625 C-11.12974121 754.76053223 -10.32198242 754.95856445 -9.48974609 755.16259766 C-6.66797083 755.82343112 -3.84013943 756.42274117 -1 757 C-0.36534821 757.12955078 0.26930359 757.25910156 0.92318726 757.39257812 C12.90315544 759.77798791 24.49043579 760.49008433 36.6875 760.375 C37.5739621 760.37034729 38.46042419 760.36569458 39.37374878 760.36090088 C65.84974471 760.19939154 91.42981712 756.96281617 117.34277344 751.72460938 C120.57996701 751.08322149 123.81923793 750.4877506 127.0703125 749.921875 C142.1544482 747.26070954 156.99916816 743.68957313 171.875 740.0625 C172.91840546 739.80942078 173.96181091 739.55634155 175.03683472 739.29559326 C188.04716319 736.13029294 200.90328656 732.65328798 213.69674683 728.70327759 C216.64132122 727.80417835 219.59672151 726.9452952 222.55400085 726.08909607 C231.87538371 723.38817524 241.10611105 720.44358755 250.3125 717.375 C251.08226166 717.11910095 251.85202332 716.8632019 252.64511108 716.59954834 C269.10347159 711.11081792 285.24406933 704.92727016 301.25 698.2265625 C307.47740069 695.64546879 313.56401358 693.52443768 320.05126953 691.71020508 C343.11755315 685.17685881 362.54274104 672.72751399 382 659 C382.67289063 658.53335938 383.34578125 658.06671875 384.0390625 657.5859375 C392.78086217 651.46282672 400.265824 644.0047442 407.8125 636.5 C408.30154816 636.0148996 408.79059631 635.52979919 409.29446411 635.02999878 C415.98464535 628.36572719 422.1379461 621.40469966 428 614 C429.07288806 612.67600391 430.14695832 611.35296419 431.22265625 610.03125 C432.16976711 608.85456595 433.11638717 607.67748667 434.0625 606.5 C434.57216309 605.87125977 435.08182617 605.24251953 435.60693359 604.59472656 C438.67948529 600.77175387 441.43586461 596.85704314 444.125 592.75 C447.42153582 588.12531442 449.95096601 586.80544286 455.42578125 585.6484375 C468.50933023 582.3527332 478.12653365 570.10205767 486 560 C487.17175781 558.55173828 487.17175781 558.55173828 488.3671875 557.07421875 C504.10201427 537.29257551 516.05521093 514.64183555 527.04345703 491.96191406 C528.01243493 489.97449539 529.0034589 487.9991304 529.99609375 486.0234375 C544.72391333 456.29302558 555.22031652 424.57885964 565.94067383 393.25109863 C594.89431094 308.64213684 594.89431094 308.64213684 622 275 C622.43844238 274.45472656 622.87688477 273.90945313 623.32861328 273.34765625 C638.83432113 254.18683758 659.77303286 238.0779314 685 235 C688.45971209 234.88803637 691.91397229 234.90540773 695.375 234.9375 C696.30183594 234.94201172 697.22867188 234.94652344 698.18359375 234.95117188 C700.45579709 234.96288426 702.72786388 234.97928628 705 235 C741.39939889 295.80840755 761.95536035 366.09064329 771 436 C771.11472656 436.8780127 771.22945312 437.75602539 771.34765625 438.66064453 C774.06268366 459.8266889 774.20448744 481.06245771 774.1875 502.375 C774.18722809 503.65791931 774.18695618 504.94083862 774.18667603 506.26263428 C774.16849 524.91567673 773.95992127 543.43371882 772 562 C771.8875293 563.0823291 771.77505859 564.1646582 771.65917969 565.27978516 C770.44757547 576.56639579 768.85625514 587.6888455 766.45654297 598.78857422 C765.90328595 601.46846838 765.40585795 604.15652118 764.91015625 606.84765625 C760.94492106 628.31238593 755.93859937 649.29922681 749 670 C748.65485352 671.04720215 748.30970703 672.0944043 747.95410156 673.17333984 C725.93834413 739.81793889 692.48286058 802.87958274 646.453125 856.14453125 C644.01053637 858.98773553 641.65782084 861.88882623 639.3125 864.8125 C636.11831705 868.74117422 632.78945732 872.37089272 629.1171875 875.85546875 C627.26766941 877.7288736 625.5628737 879.64596061 623.84765625 881.640625 C619.63097302 886.49597874 615.11891875 891.02779572 610.5625 895.5625 C609.75490234 896.37396484 608.94730469 897.18542969 608.11523438 898.02148438 C603.7962353 902.33352293 599.40314675 906.49027201 594.77563477 910.46948242 C592.36198593 912.54993953 590.02797985 914.71287709 587.6875 916.875 C582.28343362 921.79181449 576.72481413 926.46285127 571 931 C570.35675781 931.51046875 569.71351563 932.0209375 569.05078125 932.546875 C510.26509661 979.05384917 442.0002624 1016.07019151 368.98828125 1034.48779297 C366.85817918 1035.03653488 364.74220263 1035.62615017 362.625 1036.22265625 C350.28532843 1039.65875385 337.807561 1042.10400495 325.21289062 1044.40917969 C322.15509101 1044.97148022 319.10074825 1045.54961463 316.046875 1046.1328125 C286.45743388 1051.73652614 256.7229215 1053.3564146 226.65600586 1053.26074219 C223.02945996 1053.24931614 219.40320659 1053.2561648 215.77667046 1053.26761055 C192.55618278 1053.32998451 169.7427783 1051.93586811 146.75 1048.625 C145.98250427 1048.51639648 145.21500854 1048.40779297 144.42425537 1048.29589844 C133.31900954 1046.72119908 122.28223439 1044.97806912 111.33251953 1042.52246094 C108.7757086 1041.94976098 106.21429638 1041.40078081 103.65234375 1040.8515625 C18.81806388 1022.4161342 -63.42541975 982.25632324 -129.1484375 925.44921875 C-131.96857524 923.02699086 -134.84764607 920.69768269 -137.75 918.375 C-141.98786525 914.93058122 -145.86421539 911.28232378 -149.63671875 907.3359375 C-151.60580697 905.38963211 -153.60713763 903.58953701 -155.703125 901.78515625 C-160.36090246 897.74404838 -164.71474696 893.43237901 -169.0625 889.0625 C-170.2081543 887.92264648 -170.2081543 887.92264648 -171.37695312 886.75976562 C-175.56434403 882.56521067 -179.58511673 878.28491336 -183.4519043 873.79321289 C-185.53961136 871.37494947 -187.70728309 869.03403531 -189.875 866.6875 C-194.7919433 861.28329205 -199.46088689 855.72337421 -204 850 C-204.51578613 849.35144043 -205.03157227 848.70288086 -205.56298828 848.03466797 C-214.0906893 837.28085036 -222.24100069 826.32082282 -230 815 C-230.4326416 814.37029297 -230.8652832 813.74058594 -231.31103516 813.09179688 C-266.06193378 762.30715671 -294.17679394 704.35482316 -308.43701172 644.30566406 C-309.22589986 641.07484898 -310.15035051 637.88538881 -311.0625 634.6875 C-313.78380335 624.56198377 -315.52675297 614.21596407 -317.44482422 603.91503906 C-317.89565052 601.54790361 -318.36978282 599.19100905 -318.87890625 596.8359375 C-325.66061572 565.3773271 -326.42481913 532.68714917 -326.375 500.625 C-326.37476082 499.93548752 -326.37452164 499.24597504 -326.37427521 498.53556824 C-326.36393615 474.83417889 -325.42249863 451.47925392 -322 428 C-321.88873779 427.22603882 -321.77747559 426.45207764 -321.6628418 425.65466309 C-318.75720129 405.56126319 -315.06881137 385.66986112 -310 366 C-309.67660645 364.73567139 -309.67660645 364.73567139 -309.34667969 363.44580078 C-299.16975564 324.35609481 -284.0904713 287.04305791 -266 251 C-265.53851563 250.07977051 -265.07703125 249.15954102 -264.6015625 248.21142578 C-250.4452519 220.19372772 -233.0060942 193.94513257 -214 169 C-213.26789307 168.03827881 -213.26789307 168.03827881 -212.52099609 167.05712891 C-203.16469857 154.82842546 -193.14797858 143.19022812 -182.66796875 131.9140625 C-180.66767745 129.7292641 -178.72603873 127.52310552 -176.796875 125.27734375 C-172.43834688 120.27860324 -167.76084452 115.61469669 -163.0625 110.9375 C-161.77956055 109.64875977 -161.77956055 109.64875977 -160.47070312 108.33398438 C-156.02737683 103.89743661 -151.5214252 99.60428263 -146.75805664 95.51293945 C-144.34899797 93.43976398 -142.02192362 91.2815282 -139.6875 89.125 C-134.28343362 84.20818551 -128.72481413 79.53714873 -123 75 C-122.35675781 74.48953125 -121.71351563 73.9790625 -121.05078125 73.453125 C-97.87066948 55.11470016 -73.73564505 38.56861298 -48 24 C-47.18660156 23.53916016 -46.37320312 23.07832031 -45.53515625 22.60351562 C-5.39807243 0 -5.39807243 0 0 0 Z M-31.4453125 35.28125 C-32.34483643 35.78527344 -33.24436035 36.28929687 -34.17114258 36.80859375 C-35.14591553 37.36675781 -36.12068848 37.92492187 -37.125 38.5 C-38.14037842 39.07878906 -39.15575684 39.65757812 -40.2019043 40.25390625 C-63.69922749 53.79491929 -85.84130245 69.0676921 -107 86 C-108.26650391 86.99193359 -108.26650391 86.99193359 -109.55859375 88.00390625 C-126.52426766 101.34800773 -142.22133234 116.1550803 -157.5 131.375 C-158.33684326 132.20717041 -159.17368652 133.03934082 -160.03588867 133.89672852 C-164.89749533 138.77101975 -169.52499214 143.77057949 -174 149 C-175.0453195 150.19147066 -176.09216821 151.38160162 -177.140625 152.5703125 C-183.88785945 160.2668958 -190.40870455 168.08857562 -196.63183594 176.21533203 C-197.54524944 177.40681182 -198.46258816 178.59529252 -199.38378906 179.78076172 C-221.14100785 207.78996797 -239.15870506 238.32739833 -255 270 C-255.45181641 270.89041992 -255.90363281 271.78083984 -256.36914062 272.69824219 C-283.79307605 326.8931622 -299.81272013 387.79221405 -306 448 C-306.08720306 448.8307605 -306.17440613 449.661521 -306.26425171 450.51745605 C-308.01521622 467.64236264 -308.3623601 484.66966698 -308.3125 501.875 C-308.3102761 503.23072299 -308.30809966 504.58644605 -308.30596924 505.94216919 C-308.26139369 526.43571019 -307.79662807 546.66921443 -305 567 C-304.8981842 567.74969055 -304.79636841 568.4993811 -304.69146729 569.27178955 C-301.84513963 590.07712744 -298.31669711 610.66978781 -293 631 C-292.74443329 631.98652557 -292.74443329 631.98652557 -292.48370361 632.99298096 C-276.33643367 695.2830478 -250.66229371 752.98608903 -214 806 C-213.55495117 806.64678711 -213.10990234 807.29357422 -212.65136719 807.95996094 C-200.10558684 826.11858456 -186.11523219 843.17862509 -171.27001953 859.49487305 C-169.83806848 861.07513221 -168.41335842 862.66201171 -166.99902344 864.25805664 C-161.64239758 870.29150112 -156.07855177 876.07740965 -150.36108398 881.76928711 C-148.93160283 883.19337492 -147.50759489 884.62278044 -146.08398438 886.05273438 C-140.88353929 891.24594154 -135.59283911 896.23424476 -130 901 C-128.80832274 902.04508397 -127.6181971 903.09194006 -126.4296875 904.140625 C-118.16684475 911.38499758 -109.75495992 918.35830627 -101 925 C-100.2992334 925.53206055 -99.5984668 926.06412109 -98.87646484 926.61230469 C-80.35121383 940.61023798 -61.09324474 953.3668511 -41 965 C-40.26249512 965.42732422 -39.52499023 965.85464844 -38.76513672 966.29492188 C18.24034382 999.10346331 81.03025031 1020.26987156 146 1030 C147.51762939 1030.23178955 147.51762939 1030.23178955 149.06591797 1030.46826172 C172.32372553 1033.98881185 195.42430364 1035.36423994 218.9375 1035.25 C220.14187714 1035.24590118 221.34625427 1035.24180237 222.58712769 1035.23757935 C249.96959434 1035.12876525 276.58910247 1033.75587821 303.6875 1029.6875 C304.64028839 1029.54496796 305.59307678 1029.40243591 306.57473755 1029.25558472 C320.54162697 1027.13581435 334.27229535 1024.32717469 348 1021 C348.69163239 1020.83305634 349.38326477 1020.66611267 350.09585571 1020.49411011 C390.10652661 1010.76827045 428.19532224 996.47998588 465 978 C465.92248535 977.5373877 466.8449707 977.07477539 467.79541016 976.59814453 C500.56437241 960.05213868 531.96932009 939.74412916 560 916 C561.06605475 915.10765282 562.13248115 914.21574952 563.19921875 913.32421875 C569.04923427 908.42064212 574.81891319 903.4445506 580.46191406 898.30249023 C582.05490426 896.85736802 583.65468033 895.41965419 585.26416016 893.99291992 C591.29578188 888.63854839 597.07943013 883.0765222 602.76928711 877.36108398 C604.19337492 875.93160283 605.62278044 874.50759489 607.05273438 873.08398438 C612.24594154 867.88353929 617.23424476 862.59283911 622 857 C623.04508397 855.80832274 624.09194006 854.6181971 625.140625 853.4296875 C631.88785945 845.7331042 638.40870455 837.91142438 644.63183594 829.78466797 C645.54524944 828.59318818 646.46258816 827.40470748 647.38378906 826.21923828 C661.68584024 807.8074594 674.34795587 788.17927993 686 768 C686.41910645 767.27748047 686.83821289 766.55496094 687.27001953 765.81054688 C711.35338198 724.06732268 728.34838491 679.51300716 740.47979736 632.98852539 C740.94942569 631.19332523 741.42710995 629.40023722 741.90576172 627.60742188 C745.88981684 612.53677762 748.37207278 597.264909 750.75 581.875 C750.89915863 580.92006653 751.04831726 579.96513306 751.20199585 578.98126221 C754.88583465 555.18433393 756.34172277 531.72383486 756.26074219 507.64624023 C756.24935994 504.24721713 756.25613451 500.84850772 756.26761341 497.44949532 C756.3330953 474.63042277 755.02696028 452.09667518 751.8125 429.5 C751.70773346 428.75329041 751.60296692 428.00658081 751.49502563 427.23724365 C749.14437254 410.64452627 745.88268009 394.2984762 742 378 C741.70254883 376.75089844 741.40509766 375.50179688 741.09863281 374.21484375 C732.6455168 339.45197529 720.85132179 304.63217401 704 273 C681.83803615 272.30381265 663.98307026 280.80342984 647.765625 295.859375 C639.05595134 304.20199265 631.44676087 312.81394913 625 323 C624.6189209 323.57991699 624.2378418 324.15983398 623.84521484 324.75732422 C614.41009368 339.19372487 607.8515108 355.23300269 601 371 C600.54917053 372.03728241 600.54917053 372.03728241 600.0892334 373.09552002 C595.3382078 384.04040657 590.6623279 395.01710083 586 406 C585.29737339 407.65462669 584.59473647 409.309249 583.89208984 410.96386719 C582.8090606 413.51444328 581.7260744 416.06503763 580.64315796 418.61566162 C564.04117436 457.71838117 564.04117436 457.71838117 556 476 C555.63680664 476.8338623 555.27361328 477.66772461 554.89941406 478.52685547 C536.5327081 520.47539252 502.4587616 580.86649304 459.52734375 602.23046875 C455.96559112 604.7242461 453.86248734 607.91201803 451.375 611.4375 C446.74144795 617.81647441 441.85641435 623.67117922 436.44921875 629.40234375 C434.3988415 631.57698629 432.43556633 633.78671537 430.5 636.0625 C423.63197599 643.96813914 416.03866932 651.29670173 408 658 C407.2265625 658.66008057 407.2265625 658.66008057 406.4375 659.33349609 C379.22206579 682.51673288 348.08439285 700.66110942 313.25 709.375 C304.00479344 711.69319077 295.38246465 714.6779543 286.625 718.4375 C235.38193098 740.42698437 182.88001616 757.14266141 127.56738281 764.39501953 C123.68383146 764.90544345 119.80612889 765.4495168 115.9296875 766.01171875 C54.51451003 774.86941777 1.05082697 777.65536981 -56 749 C-57.02867187 748.50371094 -58.05734375 748.00742187 -59.1171875 747.49609375 C-75.24015256 739.30062536 -84.36394586 727.90816242 -90 711 C-91.03636866 703.76022463 -89.23171799 697.93081687 -85 692 C-79.3854839 686.94421001 -70.94906136 685.54752589 -63.609375 685.75 C-55.78249929 686.49988031 -48.3981464 688.11503247 -41.375 691.6875 C-30.46387075 696.9141046 -17.84700018 693.26934154 -6.38525391 691.38916016 C-3.01049935 690.83856049 0.36941559 690.32605326 3.75 689.8125 C5.50005907 689.5420486 7.25007016 689.27128627 9 689 C8.9685791 687.95211304 8.9685791 687.95211304 8.93652344 686.88305664 C8.39232204 665.91235921 8.73702153 642.86020526 24.21484375 626.515625 C33.35611315 618.75454726 43.85293573 614.03014527 55.5625 611.9375 C56.42875 611.7710498 57.295 611.60459961 58.1875 611.43310547 C62.26046768 610.65634089 66.33744668 609.93610386 70.43359375 609.29296875 C82.3095604 607.38232869 93.45449019 603.93995159 101 594 C105.68922024 586.77639702 107.85055411 580.66018734 107 572 C105.66965681 568.70915105 104.89534119 567.42946027 101.6953125 565.89453125 C90.52587783 562.18757395 78.20550246 566.80363209 68.12866211 571.73730469 C64.73235644 573.45387297 61.36526973 575.22357367 58 577 C25.48230537 593.97108132 25.48230537 593.97108132 9.28125 589.19921875 C-1.2608432 584.34518533 -9.4283223 576.03627482 -14.109375 565.50390625 C-15.41306171 560.37492828 -15.28851472 555.39509765 -15.25 550.125 C-15.25773437 549.07441406 -15.26546875 548.02382813 -15.2734375 546.94140625 C-15.24840412 536.94057029 -12.99508257 529.32460081 -8.56640625 520.43945312 C-3.69159266 509.98894073 -3.62696677 497.95623641 -2.9375 486.625 C-2.85951172 485.44550781 -2.78152344 484.26601563 -2.70117188 483.05078125 C-2.49153519 479.76936072 -2.30099309 476.48797607 -2.12307739 473.20474243 C-2.04015996 471.71940404 -1.95206167 470.23434689 -1.85910034 468.74960327 C-1.01344051 455.12124611 -0.95645296 441.52660676 -1.04296875 427.87890625 C-1.05326905 426.0572715 -1.06353802 424.23563657 -1.07377625 422.41400146 C-1.11861199 414.87636516 -1.16719494 407.33887309 -1.24682617 399.80151367 C-1.29543776 395.13251958 -1.32435099 390.46375264 -1.34057045 385.7945385 C-1.35040828 384.03433553 -1.36752643 382.27415637 -1.39235497 380.51410103 C-1.42626118 378.06323375 -1.43499444 375.61342703 -1.43823242 373.16235352 C-1.45418457 372.45113846 -1.47013672 371.7399234 -1.48657227 371.00715637 C-1.45399357 365.57294966 0.08376168 361.49221859 3 357 C5.140625 355.125 5.140625 355.125 7.25 354 C7.95640625 353.608125 8.6628125 353.21625 9.390625 352.8125 C9.92171875 352.544375 10.4528125 352.27625 11 352 C10.319375 351.505 9.63875 351.01 8.9375 350.5 C1.4224838 344.10424154 -2.9019157 338.4356301 -3.70884705 328.49331665 C-3.80076073 327.21465225 -3.80076073 327.21465225 -3.89453125 325.91015625 C-3.96672379 325.00051117 -4.03891632 324.09086609 -4.11329651 323.15365601 C-4.27006002 321.17145211 -4.42337554 319.18897323 -4.57366943 317.20626831 C-4.98871909 311.74289748 -5.43119807 306.28172958 -5.87109375 300.8203125 C-5.96259705 299.67721115 -6.05410034 298.5341098 -6.14837646 297.35636902 C-7.02737851 286.46240822 -8.03585686 275.58220863 -9.06628418 264.70169067 C-13.27733029 220.17641357 -17.10748938 175.60948519 -20.3125 131 C-20.39372101 129.87974426 -20.47494202 128.75948853 -20.55862427 127.60528564 C-22.26459992 103.93115928 -23.13754618 80.29226807 -23.5625 56.5625 C-23.60586216 54.25845868 -23.64948083 51.95442217 -23.69335938 49.65039062 C-23.79851339 44.1003121 -23.90056429 38.55018378 -24 33 C-27.37592755 33 -28.54329972 33.65209145 -31.4453125 35.28125 Z " fill="#02A651" transform="translate(376,97)"/>
<path d="M0 0 C13.29847055 6.7113293 25.38733463 14.78517079 37.32324219 23.65673828 C40.84556946 26.25010876 44.42771679 28.75671932 48.00976562 31.26660156 C54.05838113 35.52009841 60.07667906 39.81366159 66.07226562 44.14160156 C66.79800781 44.66496094 67.52375 45.18832031 68.27148438 45.72753906 C70.35529849 47.23465186 72.43395878 48.74848146 74.50976562 50.26660156 C75.27015137 50.8212207 76.03053711 51.37583984 76.81396484 51.94726562 C77.54760254 52.48834961 78.28124023 53.02943359 79.03710938 53.58691406 C79.70347412 54.07691895 80.36983887 54.56692383 81.05639648 55.07177734 C81.5360083 55.46606934 82.01562012 55.86036133 82.50976562 56.26660156 C82.50976562 56.59660156 82.50976562 56.92660156 82.50976562 57.26660156 C-29.36023438 57.26660156 -141.23023438 57.26660156 -256.49023438 57.26660156 C-250.8678379 52.76868439 -250.8678379 52.76868439 -248.04492188 51.19628906 C-247.44292969 50.85726562 -246.8409375 50.51824219 -246.22070312 50.16894531 C-245.60839844 49.82992187 -244.99609375 49.49089844 -244.36523438 49.14160156 C-241.00961584 47.26496666 -237.69232563 45.40132906 -234.49023438 43.26660156 C-264.85023438 42.93660156 -295.21023438 42.60660156 -326.49023438 42.26660156 C-326.49023438 37.3243354 -326.30033698 36.1709449 -323.09179688 32.68457031 C-315.27124475 25.76052051 -304.75489978 25.33023765 -294.80273438 24.89160156 C-277.11726268 24.03347245 -261.7636887 17.28191155 -246.42651367 8.83251953 C-236.56540516 3.47860607 -227.84097289 0.9107113 -216.49023438 2.26660156 C-207.86408512 4.93631763 -200.69282252 10.9957062 -195.49023438 18.26660156 C-190.5519268 17.74677971 -186.53309798 16.12404495 -182.05273438 14.10644531 C-178.83732788 13.05261544 -176.86584572 12.7718999 -173.49023438 13.26660156 C-170.68064366 14.82072258 -168.2405805 16.76142085 -165.74023438 18.76660156 C-165.03431152 19.30816895 -164.32838867 19.84973633 -163.60107422 20.40771484 C-160.48472007 22.81395947 -157.49131793 25.26561677 -154.57617188 27.91503906 C-150.38723469 31.92130491 -150.38723469 31.92130491 -145.01367188 33.41113281 C-142.37260956 32.932798 -140.01417952 32.1744392 -137.49023438 31.26660156 C-136.60722656 31.05003906 -135.72421875 30.83347656 -134.81445312 30.61035156 C-129.26793668 29.22988525 -126.2982273 27.67585653 -122.49023438 23.26660156 C-116.23831243 17.20537005 -110.35828873 12.18394391 -101.36523438 11.76660156 C-96.71109876 11.93765708 -94.23281971 13.48142178 -90.49023438 16.26660156 C-87.25261483 16.75893379 -85.88594787 16.52518662 -83.12304688 14.71972656 C-81.88167969 13.62917969 -81.88167969 13.62917969 -80.61523438 12.51660156 C-79.65746094 11.69933594 -78.6996875 10.88207031 -77.71289062 10.04003906 C-77.1961377 9.59370117 -76.67938477 9.14736328 -76.14697266 8.6875 C-49.07017272 -14.53486599 -31.98589926 -15.64822092 0 0 Z " fill="#05A755" transform="translate(721.490234375,941.7333984375)"/>
<path d="M0 0 C1.29369507 0.46986328 1.29369507 0.46986328 2.61352539 0.94921875 C10.21920949 3.78758966 17.43476653 7.21278699 24.58154297 11.04882812 C26.26879514 11.94367354 27.97956091 12.79377571 29.69140625 13.640625 C39.07415 18.38380343 47.12701188 24.55255832 55.375 31 C56.70403182 32.0265536 58.03345242 33.05260408 59.36328125 34.078125 C60.61788694 35.05118218 61.87182291 36.02510365 63.125 37 C63.98339478 37.66660645 63.98339478 37.66660645 64.85913086 38.34667969 C67.92894495 40.76121274 70.59510904 43.22010904 73.375 46 C-19.685 46 -112.745 46 -208.625 46 C-202.98583824 40.36083824 -202.98583824 40.36083824 -200.078125 38.7109375 C-199.41014893 38.33179199 -198.74217285 37.95264648 -198.05395508 37.56201172 C-197.3348999 37.17029785 -196.61584473 36.77858398 -195.875 36.375 C-195.11147217 35.95621582 -194.34794434 35.53743164 -193.5612793 35.10595703 C-186.65520224 31.40425061 -179.5823837 28.08737153 -172.4375 24.875 C-171.37499023 24.38950684 -170.31248047 23.90401367 -169.21777344 23.40380859 C-159.29922752 19.04967094 -159.29922752 19.04967094 -153.625 20 C-151.11905432 21.13855255 -148.99317735 22.24500498 -146.6875 23.6875 C-146.07487305 24.049646 -145.46224609 24.41179199 -144.83105469 24.78491211 C-141.56085825 26.73325252 -138.45963415 28.83854788 -135.375 31.0625 C-131.63230848 33.39580977 -128.96949244 33.23722804 -124.6953125 32.4921875 C-122.26930332 32.10328527 -120.05843017 31.90802864 -117.6171875 31.8203125 C-105.67678537 31.22818275 -97.24176688 27.38865891 -87.21875 20.99975586 C-83.10590834 18.41977936 -79.38146965 18.66415732 -74.625 19 C-72.28023449 19.6252708 -69.94439207 20.2863409 -67.625 21 C-63.85038267 21.31067889 -61.83952279 20.88452405 -58.71875 18.76171875 C-57.98462891 18.27614502 -57.25050781 17.79057129 -56.49414062 17.2902832 C-55.71232422 16.76136475 -54.93050781 16.23244629 -54.125 15.6875 C-46.9755779 11.00220595 -39.71301306 6.74953979 -32.125 2.8125 C-31.22330078 2.34352295 -30.32160156 1.8745459 -29.39257812 1.39135742 C-18.96522663 -3.96514507 -11.00073845 -4.12596275 0 0 Z " fill="#FBFDFD" transform="translate(701.625,947)"/>
<path d="M0 0 C1.66317007 2.49475511 2.55335305 4.24920833 3.51220703 7.01245117 C3.79620361 7.824198 4.0802002 8.63594482 4.37280273 9.47229004 C4.66485596 10.32061401 4.95690918 11.16893799 5.2578125 12.04296875 C5.53101318 12.82627563 5.80421387 13.60958252 6.08569336 14.41662598 C7.10343362 17.33863934 8.11377551 20.26322533 9.125 23.1875 C12.528125 32.9946875 12.528125 32.9946875 16 43 C37.78 43.495 37.78 43.495 60 44 C54.37833263 49.62166737 54.37833263 49.62166737 50.99609375 52.015625 C50.26052246 52.54067627 49.52495117 53.06572754 48.76708984 53.60668945 C47.9983252 54.14898193 47.22956055 54.69127441 46.4375 55.25 C44.83400716 56.39365089 43.23114488 57.53818639 41.62890625 58.68359375 C40.84531738 59.24288574 40.06172852 59.80217773 39.25439453 60.37841797 C34.44336477 63.83898324 29.72079611 67.41774883 25 71 C26.09057146 76.66088538 27.60754399 82.08427115 29.41796875 87.5546875 C29.6403421 88.22743713 29.86271545 88.90018677 30.09182739 89.59332275 C31.02549097 92.40562836 31.96497418 95.21588617 32.9128418 98.0234375 C33.60985162 100.09384819 34.29583843 102.16765625 34.98046875 104.2421875 C35.39192139 105.4679248 35.80337402 106.69366211 36.22729492 107.95654297 C37 111 37 111 36 114 C35.13761719 113.35675781 34.27523437 112.71351563 33.38671875 112.05078125 C25.94151001 106.52611559 18.41943755 101.11234939 10.8125 95.8125 C9.99934326 95.23604736 9.18618652 94.65959473 8.34838867 94.06567383 C7.57986572 93.53482178 6.81134277 93.00396973 6.01953125 92.45703125 C5.33995361 91.98241455 4.66037598 91.50779785 3.96020508 91.01879883 C1.77665151 89.69255214 1.77665151 89.69255214 -2 90 C-4.4876844 91.65547343 -6.78840283 93.33902758 -9.125 95.1875 C-10.54300107 96.28159557 -11.96232628 97.37397664 -13.3828125 98.46484375 C-14.12821289 99.03960449 -14.87361328 99.61436523 -15.64160156 100.20654297 C-19.70580906 103.29719186 -23.85313663 106.27169276 -28 109.25 C-29.19326904 110.10887817 -29.19326904 110.10887817 -30.41064453 110.98510742 C-32.2728016 112.32475184 -34.13587828 113.66309147 -36 115 C-37.51023301 111.97953397 -36.30836526 110.16428685 -35.3046875 106.98828125 C-34.72835571 105.14786255 -34.72835571 105.14786255 -34.14038086 103.27026367 C-33.71883653 101.95092944 -33.29703873 100.63167617 -32.875 99.3125 C-32.45594833 97.98494381 -32.03740936 96.65722566 -31.61938477 95.3293457 C-28.83896877 86.52249046 -26.00188496 77.73412759 -23 69 C-23.68578125 68.77054687 -24.3715625 68.54109375 -25.078125 68.3046875 C-28.67386374 66.69910363 -31.63353627 64.49184017 -34.75 62.125 C-41.31423929 57.21404406 -47.9759777 52.46440818 -54.71582031 47.79736328 C-56.49416763 46.55550758 -58.24971999 45.28111071 -60 44 C-60 43.67 -60 43.34 -60 43 C-44.49 43 -28.98 43 -13 43 C-12.67 40.69 -12.34 38.38 -12 36 C-11.32188565 33.56851429 -10.58885393 31.15192348 -9.8125 28.75 C-9.36573632 27.35812077 -8.91912903 25.96619132 -8.47265625 24.57421875 C-8.23562988 23.84122559 -7.99860352 23.10823242 -7.75439453 22.35302734 C-6.94536355 19.82958378 -6.15639286 17.3004567 -5.37109375 14.76953125 C-5.10127686 13.90295898 -4.83145996 13.03638672 -4.5534668 12.14355469 C-4.02325845 10.44031475 -3.49473908 8.73654802 -2.96801758 7.03222656 C-1.1127923 1.1127923 -1.1127923 1.1127923 0 0 Z " fill="#FAFDFB" transform="translate(781,321)"/>
<path d="M0 0 C6.6 0 13.2 0 20 0 C22.96064091 8.71274326 25.78012034 17.42444449 28.29956055 26.27514648 C29.35220478 29.94167484 30.50424225 33.48940875 32 37 C35.70791579 24.67850663 39.38079947 12.34786064 43 0 C49.6 0 56.2 0 63 0 C63 19.47 63 38.94 63 59 C59.04 59 55.08 59 51 59 C50.505 38.21 50.505 38.21 50 17 C48.35 23.6 46.7 30.2 45 37 C43.77263162 41.11180278 42.53474833 45.18148849 41.1875 49.25 C40.87619141 50.2090625 40.56488281 51.168125 40.24414062 52.15625 C39.5020974 54.43945992 38.75203311 56.72006099 38 59 C33.71 59 29.42 59 25 59 C21.68579971 48.21780173 18.49489864 37.45025795 15.859375 26.48046875 C14.99132682 22.96487362 13.9948136 19.48184759 13 16 C12.67 30.19 12.34 44.38 12 59 C8.04 59 4.08 59 0 59 C0 39.53 0 20.06 0 0 Z " fill="#03A752" transform="translate(623,537)"/>
<path d="M0 0 C116.16 0 232.32 0 352 0 C352 2.31 352 4.62 352 7 C235.84 7 119.68 7 0 7 C0 4.69 0 2.38 0 0 Z " fill="#00A650" transform="translate(457,1012)"/>
<path d="M0 0 C0.71752441 0.33161133 1.43504883 0.66322266 2.17431641 1.00488281 C5.11412457 2.37425024 8.04699401 3.7568883 10.96972656 5.16235352 C21.18253693 10.0606495 30.1997435 13.1154799 41.58984375 13.17578125 C43.27800735 13.19897278 44.96615845 13.22308984 46.65429688 13.24804688 C49.29850754 13.28316549 51.94225422 13.3125241 54.58666992 13.32592773 C57.15078805 13.3414447 59.71357871 13.38166196 62.27734375 13.42578125 C63.06189438 13.42387283 63.84644501 13.42196442 64.6547699 13.41999817 C69.82777663 13.53462875 72.97318521 14.4582307 77 18 C77.33 19.32 77.66 20.64 78 22 C32.46 22 -13.08 22 -60 22 C-56.28422185 12.71055464 -51.24640037 4.81476949 -43 -1 C-42.29617187 -1.50660156 -41.59234375 -2.01320313 -40.8671875 -2.53515625 C-27.77999515 -10.49838007 -12.81310461 -5.92967933 0 0 Z " fill="#F5FBFA" transform="translate(178,480)"/>
<path d="M0 0 C92.73 0 185.46 0 281 0 C281 2.31 281 4.62 281 7 C188.27 7 95.54 7 0 7 C0 4.69 0 2.38 0 0 Z " fill="#00A650" transform="translate(489,1030)"/>
<path d="M0 0 C4.95 0 9.9 0 15 0 C17.5816015 5.66840801 20.15910886 11.3386548 22.7331543 17.01049805 C23.60578248 18.93188268 24.47944681 20.85279714 25.35424805 22.77319336 C30.81189199 34.75621307 36.09289529 46.78038686 41 59 C36.05 59 31.1 59 26 59 C23.525 53.06 23.525 53.06 21 47 C12.09 46.67 3.18 46.34 -6 46 C-6.99 48.97 -7.98 51.94 -9 55 C-9.66 56.32 -10.32 57.64 -11 59 C-15.62 59 -20.24 59 -25 59 C-19.47844015 44.64041625 -13.35407339 30.57193011 -7.10522461 16.51806641 C-6.78387039 15.79502823 -6.46251617 15.07199005 -6.13142395 14.32704163 C-5.52507309 12.96396047 -4.91770573 11.60133085 -4.30912781 10.23924255 C-2.79853596 6.8481604 -1.3796611 3.44915276 0 0 Z " fill="#05A753" transform="translate(550,537)"/>
<path d="M0 0 C4.95 0 9.9 0 15 0 C15.57967529 1.30557861 16.15935059 2.61115723 16.7565918 3.95629883 C18.92733213 8.84502281 21.09870679 13.73346485 23.27026367 18.62182617 C24.20630655 20.72917233 25.14218219 22.83659278 26.07788086 24.9440918 C27.4303762 27.99027198 28.78349224 31.03617582 30.13671875 34.08203125 C30.75422249 35.47335014 30.75422249 35.47335014 31.38420105 36.89277649 C31.78423843 37.79287949 32.18427582 38.69298248 32.59643555 39.62036133 C32.98592377 40.49858551 33.37541199 41.37680969 33.77670288 42.28164673 C34.64075399 44.20170042 35.52185115 46.1141266 36.41494751 48.02084351 C37.10250626 49.49298813 37.10250626 49.49298813 37.80395508 50.99487305 C38.22413406 51.88248825 38.64431305 52.77010345 39.07722473 53.68461609 C40 56 40 56 40 59 C35.38 59 30.76 59 26 59 C21 48.25 21 48.25 21 46 C7.635 46.495 7.635 46.495 -6 47 C-7.65 50.96 -9.3 54.92 -11 59 C-15.62 59 -20.24 59 -25 59 C-22.67840564 51.52367917 -19.66378907 44.5020262 -16.4375 37.375 C-15.36768032 34.99124844 -14.29868563 32.60712649 -13.23046875 30.22265625 C-12.69341309 29.02527832 -12.15635742 27.82790039 -11.60302734 26.59423828 C-9.11525426 21.01626152 -6.67905853 15.41624438 -4.25 9.8125 C-3.82001709 8.8210498 -3.39003418 7.82959961 -2.94702148 6.80810547 C-1.96372636 4.53915045 -0.98170268 2.26964447 0 0 Z " fill="#05A753" transform="translate(718,537)"/>
<path d="M0 0 C1.66317007 2.49475511 2.55335305 4.24920833 3.51220703 7.01245117 C3.79620361 7.824198 4.0802002 8.63594482 4.37280273 9.47229004 C4.66485596 10.32061401 4.95690918 11.16893799 5.2578125 12.04296875 C5.53101318 12.82627563 5.80421387 13.60958252 6.08569336 14.41662598 C7.10343362 17.33863934 8.11377551 20.26322533 9.125 23.1875 C12.528125 32.9946875 12.528125 32.9946875 16 43 C37.78 43.495 37.78 43.495 60 44 C54.37833263 49.62166737 54.37833263 49.62166737 50.99609375 52.015625 C50.26052246 52.54067627 49.52495117 53.06572754 48.76708984 53.60668945 C47.9983252 54.14898193 47.22956055 54.69127441 46.4375 55.25 C44.83400716 56.39365089 43.23114488 57.53818639 41.62890625 58.68359375 C40.84531738 59.24288574 40.06172852 59.80217773 39.25439453 60.37841797 C34.44336477 63.83898324 29.72079611 67.41774883 25 71 C26.09057146 76.66088538 27.60754399 82.08427115 29.41796875 87.5546875 C29.6403421 88.22743713 29.86271545 88.90018677 30.09182739 89.59332275 C31.02549097 92.40562836 31.96497418 95.21588617 32.9128418 98.0234375 C33.60985162 100.09384819 34.29583843 102.16765625 34.98046875 104.2421875 C35.39192139 105.4679248 35.80337402 106.69366211 36.22729492 107.95654297 C37 111 37 111 36 114 C35.13761719 113.35675781 34.27523437 112.71351563 33.38671875 112.05078125 C25.94151001 106.52611559 18.41943755 101.11234939 10.8125 95.8125 C9.99934326 95.23604736 9.18618652 94.65959473 8.34838867 94.06567383 C7.57986572 93.53482178 6.81134277 93.00396973 6.01953125 92.45703125 C5.33995361 91.98241455 4.66037598 91.50779785 3.96020508 91.01879883 C1.77665151 89.69255214 1.77665151 89.69255214 -2 90 C-4.4876844 91.65547343 -6.78840283 93.33902758 -9.125 95.1875 C-10.54300107 96.28159557 -11.96232628 97.37397664 -13.3828125 98.46484375 C-14.12821289 99.03960449 -14.87361328 99.61436523 -15.64160156 100.20654297 C-19.70580906 103.29719186 -23.85313663 106.27169276 -28 109.25 C-29.19326904 110.10887817 -29.19326904 110.10887817 -30.41064453 110.98510742 C-32.2728016 112.32475184 -34.13587828 113.66309147 -36 115 C-37.51023301 111.97953397 -36.30836526 110.16428685 -35.3046875 106.98828125 C-34.72835571 105.14786255 -34.72835571 105.14786255 -34.14038086 103.27026367 C-33.71883653 101.95092944 -33.29703873 100.63167617 -32.875 99.3125 C-32.45594833 97.98494381 -32.03740936 96.65722566 -31.61938477 95.3293457 C-28.83896877 86.52249046 -26.00188496 77.73412759 -23 69 C-23.68578125 68.77054687 -24.3715625 68.54109375 -25.078125 68.3046875 C-28.67386374 66.69910363 -31.63353627 64.49184017 -34.75 62.125 C-41.31423929 57.21404406 -47.9759777 52.46440818 -54.71582031 47.79736328 C-56.49416763 46.55550758 -58.24971999 45.28111071 -60 44 C-60 43.67 -60 43.34 -60 43 C-44.49 43 -28.98 43 -13 43 C-12.67 40.69 -12.34 38.38 -12 36 C-11.32188565 33.56851429 -10.58885393 31.15192348 -9.8125 28.75 C-9.36573632 27.35812077 -8.91912903 25.96619132 -8.47265625 24.57421875 C-8.23562988 23.84122559 -7.99860352 23.10823242 -7.75439453 22.35302734 C-6.94536355 19.82958378 -6.15639286 17.3004567 -5.37109375 14.76953125 C-5.10127686 13.90295898 -4.83145996 13.03638672 -4.5534668 12.14355469 C-4.02325845 10.44031475 -3.49473908 8.73654802 -2.96801758 7.03222656 C-1.1127923 1.1127923 -1.1127923 1.1127923 0 0 Z M0 13 C-3.00608809 19.3199996 -5.25920252 25.65350592 -7.1875 32.375 C-7.7015966 34.1328787 -8.21590996 35.89069403 -8.73046875 37.6484375 C-8.95114014 38.41333496 -9.17181152 39.17823242 -9.39916992 39.96630859 C-9.89803317 41.65486239 -10.44321652 43.32964955 -11 45 C-22.88 45.33 -34.76 45.66 -47 46 C-43.4190415 49.5809585 -40.5475021 52.19361588 -36.48046875 54.98828125 C-35.45888672 55.69404297 -34.43730469 56.39980469 -33.38476562 57.12695312 C-31.80211914 58.20879883 -31.80211914 58.20879883 -30.1875 59.3125 C-29.11306641 60.05306641 -28.03863281 60.79363281 -26.93164062 61.55664062 C-24.29093794 63.37579136 -21.64701686 65.19005492 -19 67 C-19.3081665 67.98395752 -19.61633301 68.96791504 -19.93383789 69.98168945 C-21.07387389 73.62985546 -22.20236792 77.28150581 -23.32739258 80.93432617 C-23.81610586 82.51538101 -24.30795227 84.0954709 -24.80297852 85.67456055 C-25.51362038 87.94333995 -26.21295524 90.21534088 -26.91015625 92.48828125 C-27.13405533 93.19463211 -27.35795441 93.90098297 -27.58863831 94.6287384 C-28.87083088 98.78823368 -28.87083088 98.78823368 -28 103 C-27.43079834 102.57178955 -26.86159668 102.1435791 -26.27514648 101.70239258 C-23.66324727 99.73822951 -21.05038134 97.77535635 -18.4375 95.8125 C-17.54224609 95.13896484 -16.64699219 94.46542969 -15.72460938 93.77148438 C-13.96534961 92.45042851 -12.20158803 91.13534383 -10.43310547 89.82666016 C-8.91921224 88.69010094 -7.42431526 87.52718013 -5.96142578 86.32568359 C-4.16015625 84.88671875 -4.16015625 84.88671875 -1 83 C2.70413162 84.05627981 5.60011126 85.94042106 8.72265625 88.15234375 C10.02493164 89.06983398 10.02493164 89.06983398 11.35351562 90.00585938 C12.24748047 90.64330078 13.14144531 91.28074219 14.0625 91.9375 C14.96033203 92.57107422 15.85816406 93.20464844 16.78320312 93.85742188 C20.55795298 96.52640857 24.31157948 99.21252758 28 102 C28.66 101.67 29.32 101.34 30 101 C29.6918335 100.1121582 29.38366699 99.22431641 29.06616211 98.30957031 C27.92649566 95.00995638 26.7963964 91.7073825 25.67260742 88.40234375 C25.18453746 86.97330863 24.69270318 85.54555337 24.19702148 84.11914062 C23.48465371 82.06706415 22.78600707 80.01074655 22.08984375 77.953125 C21.45357056 76.09929199 21.45357056 76.09929199 20.80444336 74.20800781 C19.69408278 69.78004484 19.69408278 69.78004484 21 67 C23.07550432 65.28571041 25.08385141 63.79836355 27.3125 62.3125 C28.58288329 61.43612966 29.85239772 60.55849865 31.12109375 59.6796875 C31.76546387 59.2372168 32.40983398 58.79474609 33.07373047 58.33886719 C36.05425968 56.26722939 38.96914214 54.11212933 41.875 51.9375 C42.86242187 51.20402344 43.84984375 50.47054687 44.8671875 49.71484375 C45.57101562 49.14894531 46.27484375 48.58304687 47 48 C47 47.67 47 47.34 47 47 C35.45 47 23.9 47 12 47 C11.34 44.03 10.68 41.06 10 38 C9.3234082 35.86937885 8.60518529 33.75129129 7.8359375 31.65234375 C7.43632813 30.55341797 7.03671875 29.45449219 6.625 28.32226562 C6.2125 27.20529297 5.8 26.08832031 5.375 24.9375 C4.95476562 23.78572266 4.53453125 22.63394531 4.1015625 21.44726562 C3.07271705 18.62963206 2.03876545 15.81398816 1 13 C0.67 13 0.34 13 0 13 Z " fill="#0FAB5A" transform="translate(781,321)"/>
<path d="M0 0 C4.29 0 8.58 0 13 0 C13.00410889 1.27641357 13.00821777 2.55282715 13.01245117 3.86791992 C13.03425079 8.61132994 13.08854946 13.35391145 13.15258789 18.09692383 C13.17576059 20.14827524 13.19016189 22.1997455 13.19555664 24.2512207 C13.20485143 27.2033895 13.24585364 30.15369086 13.29296875 33.10546875 C13.2890361 34.02023483 13.28510345 34.93500092 13.28105164 35.87748718 C13.38496391 40.42962272 13.51059669 42.38178815 16.41918945 46.0559082 C21.16686848 49.63227449 25.18553416 49.50361515 31 49 C34.17278496 47.74410595 35.4777811 46.9608039 37.09912109 43.9777832 C38.35653761 39.82149344 38.35675274 35.86440923 38.4140625 31.54296875 C38.43342865 30.64000565 38.4527948 29.73704254 38.4727478 28.80671692 C38.53234082 25.93373953 38.57884769 23.06072163 38.625 20.1875 C38.66319845 18.23500895 38.70225127 16.28253441 38.7421875 14.33007812 C38.83802569 9.55352016 38.92213152 4.77688333 39 0 C43.29 0 47.58 0 52 0 C52.09967465 5.77997948 52.17184583 11.55944688 52.21972656 17.34008789 C52.23970918 19.30209074 52.26690484 21.26403505 52.30175781 23.22583008 C52.69222315 45.78668758 52.69222315 45.78668758 48 53 C40.11591697 60.10798819 32.13368939 60.37637134 21.9609375 60.21484375 C14.18233479 59.79292743 8.34916794 57.73125136 3 52 C0.05935831 45.7008061 -0.40878644 40.48390438 -0.29296875 33.59375 C-0.28872391 32.6284436 -0.28447906 31.66313721 -0.28010559 30.6685791 C-0.26343097 27.6120917 -0.22579992 24.55628515 -0.1875 21.5 C-0.17243866 19.41667625 -0.1587528 17.33334207 -0.14648438 15.25 C-0.11356424 10.16640785 -0.06186016 5.08331901 0 0 Z " fill="#04A753" transform="translate(766,537)"/>
<path d="M0 0 C3.85253379 3.11481455 6.49432581 6.73107359 9 11 C9 11.99 9 12.98 9 14 C7.58461283 14.33872513 6.16762037 14.67074624 4.75 15 C3.96109375 15.185625 3.1721875 15.37125 2.359375 15.5625 C0 16 0 16 -4 16 C-5.36363208 14.02053408 -6.69418644 12.0180755 -8 10 C-11.71645572 6.81446653 -15.06168291 6.53422958 -19.7890625 6.71484375 C-24.42088009 7.31223365 -27.1897649 9.12407016 -30.3125 12.5 C-34.48954895 18.68822066 -33.50102625 26.82332819 -33 34 C-31.79961231 38.72609782 -29.83011086 41.24535377 -26.25 44.5 C-22.2610506 46.34105357 -19.3149899 46.72347136 -15 46 C-10.06541622 44.04478756 -6.9691545 42.19334966 -4.8125 37.3125 C-4.544375 36.549375 -4.27625 35.78625 -4 35 C-2.58249437 35.11509661 -1.16598831 35.24253658 0.25 35.375 C1.03890625 35.44460938 1.8278125 35.51421875 2.640625 35.5859375 C5.085877 36.01507113 6.84836903 36.78600638 9 38 C7.78650028 43.94614864 5.68055441 48.0289191 1 52 C-1.91066735 53.61921159 -4.88286204 54.84042468 -8 56 C-8.99 56.495 -8.99 56.495 -10 57 C-20.89048778 57.83039969 -30.04975342 57.13226155 -38.875 50.1875 C-44.40900423 45.01808899 -47.6197248 38.21265908 -48.30078125 30.66796875 C-48.33490159 20.534227 -47.32476721 11.5598832 -40 4 C-28.19401877 -5.470972 -13.59983658 -7.17379696 0 0 Z " fill="#07A854" transform="translate(511,540)"/>
<path d="M0 0 C0.73017334 0.30131836 1.46034668 0.60263672 2.21264648 0.91308594 C6.73334932 2.80522546 11.12570327 4.87497273 15.50463867 7.07275391 C24.21333518 11.39451349 32.37757831 13.66221911 42.0625 14.875 C43.2494043 15.02388672 44.43630859 15.17277344 45.65917969 15.32617188 C46.31079071 15.40748352 46.96240173 15.48879517 47.63375854 15.5725708 C49.00634521 15.74401873 50.37884202 15.91618751 51.75125122 16.08905029 C55.21538128 16.52454439 58.67994818 16.94762774 62.14892578 17.34277344 C79.82118811 19.4638859 79.82118811 19.4638859 85 25.8125 C85.56589844 26.48152344 86.13179687 27.15054688 86.71484375 27.83984375 C88.0625 29.875 88.0625 29.875 89.0625 33.875 C37.5825 33.875 -13.8975 33.875 -66.9375 33.875 C-64.68599014 27.12047041 -64.68599014 27.12047041 -62.765625 24.47265625 C-62.3519165 23.89596191 -61.93820801 23.31926758 -61.51196289 22.72509766 C-61.07489014 22.13519043 -60.63781738 21.5452832 -60.1875 20.9375 C-59.73431396 20.3192334 -59.28112793 19.7009668 -58.81420898 19.06396484 C-57.53179551 17.32670861 -56.23641601 15.59993049 -54.9375 13.875 C-54.40769531 13.15441406 -53.87789062 12.43382812 -53.33203125 11.69140625 C-39.09820788 -6.38262754 -20.15095379 -8.49620726 0 0 Z M-40.9375 7.875 C-41.618125 8.33648437 -42.29875 8.79796875 -43 9.2734375 C-49.60872153 14.35905524 -53.90968519 21.6864694 -57.9375 28.875 C-57.9375 29.535 -57.9375 30.195 -57.9375 30.875 C-12.3975 30.875 33.1425 30.875 80.0625 30.875 C78.57521166 26.02918516 78.57521166 26.02918516 75.95898438 24.08569336 C72.18804186 22.5094877 68.73604071 22.47155056 64.71875 22.50390625 C63.06249816 22.48650264 61.4062482 22.46891853 59.75 22.45117188 C57.1679294 22.44117708 54.58599523 22.43748431 52.00390625 22.43920898 C41.34622954 22.42381365 32.11014911 21.89025028 22.0625 17.875 C21.31307129 17.58214111 20.56364258 17.28928223 19.79150391 16.98754883 C17.87882031 16.20250602 16.00185527 15.36676497 14.125 14.5 C12.77494584 13.89407148 11.42468091 13.28861239 10.07421875 12.68359375 C9.07720947 12.23282471 9.07720947 12.23282471 8.06005859 11.77294922 C4.86634367 10.3372998 1.65379286 8.94666156 -1.5625 7.5625 C-2.64789063 7.09199219 -3.73328125 6.62148438 -4.8515625 6.13671875 C-16.67278909 1.30348307 -30.13074 0.12750662 -40.9375 7.875 Z " fill="#08A95B" transform="translate(175.9375,471.125)"/>
<path d="M0 0 C1.24559692 0.01027222 1.24559692 0.01027222 2.51635742 0.02075195 C11.74572256 0.26222579 19.03870629 2.74202751 25.5625 9.4375 C25.5625 10.4275 25.5625 11.4175 25.5625 12.4375 C23.83422852 13.86376953 23.83422852 13.86376953 21.44140625 15.3203125 C20.58869141 15.84753906 19.73597656 16.37476563 18.85742188 16.91796875 C17.95572266 17.46066406 17.05402344 18.00335937 16.125 18.5625 C14.35497876 19.64763865 12.58542226 20.73353587 10.81640625 21.8203125 C10.02564697 22.29871582 9.2348877 22.77711914 8.42016602 23.27001953 C6.62150977 24.30434562 6.62150977 24.30434562 5.5625 25.4375 C2.54899762 25.53279612 -0.44154106 25.56301904 -3.45532227 25.55102539 C-4.40156464 25.55117142 -5.34780701 25.55131744 -6.32272339 25.5514679 C-9.46647392 25.55076836 -12.61016601 25.54297409 -15.75390625 25.53515625 C-17.92724068 25.53329221 -20.10057552 25.53186824 -22.27391052 25.53086853 C-28.00651195 25.52704221 -33.73908823 25.51721097 -39.47167969 25.50616455 C-45.31640279 25.49595287 -51.16112993 25.49137143 -57.00585938 25.48632812 C-68.483084 25.4755888 -79.96028991 25.45851102 -91.4375 25.4375 C-90.06766497 22.27634224 -89.4484362 21.4447908 -86.4375 19.4375 C-83.96715664 19.23266744 -81.6002917 19.13656485 -79.12890625 19.12890625 C-77.64387696 19.10370642 -76.15885101 19.0783091 -74.67382812 19.05273438 C-72.3506797 19.02425189 -70.02759085 19.00022594 -67.7043457 18.98120117 C-53.19044557 18.83932074 -41.97770504 16.91694625 -29.25 9.4375 C-19.49948837 3.77988008 -11.4242479 -0.14543548 0 0 Z " fill="#FCFEFD" transform="translate(496.4375,952.5625)"/>
<path d="M0 0 C57.42 0 114.84 0 174 0 C174 0.99 174 1.98 174 3 C116.58 3 59.16 3 0 3 C0 2.01 0 1.02 0 0 Z " fill="#00A650" transform="translate(99,512)"/>
<path d="M0 0 C2.96803833 2.96803833 4.06053418 6.58675182 5.625 10.4375 C5.94984375 11.21416016 6.2746875 11.99082031 6.609375 12.79101562 C6.91617188 13.53931641 7.22296875 14.28761719 7.5390625 15.05859375 C7.95986084 16.08424438 7.95986084 16.08424438 8.38916016 17.13061523 C9 19 9 19 9 22 C3.39 22 -2.22 22 -8 22 C-7.29836166 18.49180831 -6.7077252 15.97658183 -5.37109375 12.79296875 C-5.05849609 12.04208984 -4.74589844 11.29121094 -4.42382812 10.51757812 C-4.09833984 9.74865234 -3.77285156 8.97972656 -3.4375 8.1875 C-3.10814453 7.39923828 -2.77878906 6.61097656 -2.43945312 5.79882812 C-1.63041094 3.86416204 -0.81576148 1.93184247 0 0 Z " fill="#EEF9F3" transform="translate(557,551)"/>
<path d="M0 0 C2.45041203 3.67561805 3.96046944 7.4857534 5.625 11.5625 C5.94984375 12.34302734 6.2746875 13.12355469 6.609375 13.92773438 C7.06957031 15.04825195 7.06957031 15.04825195 7.5390625 16.19140625 C7.95986084 17.21536499 7.95986084 17.21536499 8.38916016 18.26000977 C9 20 9 20 9 22 C3.39 22 -2.22 22 -8 22 C-6.87420428 15.24522565 -6.87420428 15.24522565 -5.625 12.16796875 C-5.23054687 11.18860352 -5.23054687 11.18860352 -4.828125 10.18945312 C-4.55484375 9.52880859 -4.2815625 8.86816406 -4 8.1875 C-3.72671875 7.50751953 -3.4534375 6.82753906 -3.171875 6.12695312 C-1.14553571 1.14553571 -1.14553571 1.14553571 0 0 Z " fill="#EEF9F3" transform="translate(725,551)"/>
<path d="M0 0 C4.62 0 9.24 0 14 0 C15.98 3.96 17.96 7.92 20 12 C16.36580159 12.65534725 14.50777047 12.93206472 11 12 C6.86323543 8.72240961 3.37797241 5.04725292 0 1 C0 0.67 0 0.34 0 0 Z " fill="#11AC5C" transform="translate(544,522)"/>
</svg>
