<svg xmlns="http://www.w3.org/2000/svg" width="1280" height="720" viewBox="0 0 1280 720">
  <defs>
    <linearGradient id="bgGrad" x1="0%" y1="0%" x2="100%" y2="100%">
      <stop offset="0%" style="stop-color:#fffefb"/>
      <stop offset="100%" style="stop-color:#fef3c7"/>
    </linearGradient>
    <linearGradient id="headerGrad" x1="0%" y1="0%" x2="100%" y2="0%">
      <stop offset="0%" style="stop-color:#991b1b"/>
      <stop offset="50%" style="stop-color:#b91c1c"/>
      <stop offset="100%" style="stop-color:#991b1b"/>
    </linearGradient>
    <linearGradient id="goldGrad" x1="0%" y1="0%" x2="100%" y2="0%">
      <stop offset="0%" style="stop-color:#f59e0b"/>
      <stop offset="50%" style="stop-color:#fbbf24"/>
      <stop offset="100%" style="stop-color:#f59e0b"/>
    </linearGradient>
  </defs>

  <!-- Background -->
  <rect width="1280" height="720" fill="url(#bgGrad)"/>

  <!-- Header -->
  <rect x="0" y="0" width="1280" height="70" fill="url(#headerGrad)"/>
  <rect x="0" y="70" width="1280" height="4" fill="url(#goldGrad)"/>

  <!-- Header content -->
  <circle cx="50" cy="35" r="20" fill="#f59e0b"/>
  <rect x="80" y="20" width="180" height="14" rx="2" fill="#ffffff"/>
  <rect x="80" y="40" width="120" height="10" rx="2" fill="#fcd34d" opacity="0.7"/>

  <!-- Language selector -->
  <rect x="1150" y="20" width="100" height="30" rx="6" fill="rgba(255,255,255,0.15)"/>
  <text x="1180" y="40" font-family="Arial" font-size="14" fill="#ffffff">🇻🇳 VI</text>

  <!-- Sidebar -->
  <rect x="0" y="74" width="260" height="646" fill="#ffffff"/>
  <rect x="259" y="74" width="1" height="646" fill="#e5e7eb"/>

  <!-- Sidebar menu items -->
  <rect x="15" y="90" width="230" height="50" rx="10" fill="#b91c1c"/>
  <rect x="25" y="103" width="30" height="24" rx="6" fill="#991b1b"/>
  <rect x="65" y="105" width="120" height="10" rx="2" fill="#ffffff"/>
  <rect x="65" y="120" width="80" height="8" rx="2" fill="#fcd34d" opacity="0.7"/>

  <rect x="15" y="150" width="230" height="50" rx="10" fill="transparent"/>
  <rect x="25" y="163" width="30" height="24" rx="6" fill="#f3f4f6"/>
  <rect x="65" y="165" width="100" height="10" rx="2" fill="#374151"/>
  <rect x="65" y="180" width="70" height="8" rx="2" fill="#9ca3af"/>

  <rect x="15" y="210" width="230" height="50" rx="10" fill="transparent"/>
  <rect x="25" y="223" width="30" height="24" rx="6" fill="#f3f4f6"/>
  <rect x="65" y="225" width="110" height="10" rx="2" fill="#374151"/>
  <rect x="65" y="240" width="90" height="8" rx="2" fill="#9ca3af"/>

  <rect x="15" y="270" width="230" height="50" rx="10" fill="transparent"/>
  <rect x="25" y="283" width="30" height="24" rx="6" fill="#f3f4f6"/>
  <rect x="65" y="285" width="90" height="10" rx="2" fill="#374151"/>
  <rect x="65" y="300" width="100" height="8" rx="2" fill="#9ca3af"/>

  <!-- Main content area -->
  <!-- Hero section -->
  <rect x="280" y="90" width="980" height="150" rx="16" fill="url(#headerGrad)"/>
  <rect x="280" y="90" width="980" height="4" rx="2" fill="url(#goldGrad)"/>
  <rect x="280" y="236" width="980" height="4" rx="2" fill="url(#goldGrad)"/>

  <!-- Hero content -->
  <circle cx="330" cy="165" r="35" fill="#f59e0b"/>
  <rect x="380" y="140" width="250" height="20" rx="3" fill="#ffffff"/>
  <rect x="380" y="170" width="400" height="12" rx="2" fill="rgba(255,255,255,0.7)"/>

  <!-- Search bar in hero -->
  <rect x="380" y="195" width="350" height="35" rx="10" fill="#ffffff"/>
  <circle cx="400" cy="212" r="8" fill="none" stroke="#9ca3af" stroke-width="2"/>

  <!-- Filter section -->
  <rect x="280" y="260" width="980" height="80" rx="12" fill="#ffffff"/>
  <rect x="300" y="280" width="100" height="14" rx="2" fill="#374151"/>
  <rect x="300" y="305" width="200" height="25" rx="6" fill="#f3f4f6" stroke="#d1d5db"/>
  <rect x="520" y="305" width="200" height="25" rx="6" fill="#f3f4f6" stroke="#d1d5db"/>
  <rect x="740" y="305" width="80" height="25" rx="6" fill="#b91c1c"/>
  <rect x="830" y="305" width="80" height="25" rx="6" fill="#f3f4f6" stroke="#d1d5db"/>

  <!-- Heritage cards row 1 -->
  <rect x="280" y="360" width="310" height="200" rx="12" fill="#ffffff" stroke="#e5e7eb"/>
  <rect x="280" y="360" width="310" height="4" rx="2" fill="#b91c1c"/>
  <rect x="280" y="364" width="310" height="90" fill="#f3f4f6"/>
  <circle cx="435" cy="409" r="25" fill="#fef3c7" stroke="#f59e0b" stroke-width="2"/>
  <rect x="295" y="470" width="200" height="14" rx="2" fill="#1f2937"/>
  <rect x="295" y="492" width="250" height="10" rx="2" fill="#6b7280"/>
  <rect x="295" y="510" width="180" height="10" rx="2" fill="#6b7280"/>
  <rect x="295" y="535" width="80" height="16" rx="8" fill="#fef3c7"/>

  <rect x="610" y="360" width="310" height="200" rx="12" fill="#ffffff" stroke="#e5e7eb"/>
  <rect x="610" y="360" width="310" height="4" rx="2" fill="#f59e0b"/>
  <rect x="610" y="364" width="310" height="90" fill="#f3f4f6"/>
  <circle cx="765" cy="409" r="25" fill="#fef3c7" stroke="#f59e0b" stroke-width="2"/>
  <rect x="625" y="470" width="180" height="14" rx="2" fill="#1f2937"/>
  <rect x="625" y="492" width="230" height="10" rx="2" fill="#6b7280"/>
  <rect x="625" y="510" width="200" height="10" rx="2" fill="#6b7280"/>
  <rect x="625" y="535" width="70" height="16" rx="8" fill="#dcfce7"/>

  <rect x="940" y="360" width="310" height="200" rx="12" fill="#ffffff" stroke="#e5e7eb"/>
  <rect x="940" y="360" width="310" height="4" rx="2" fill="#16a34a"/>
  <rect x="940" y="364" width="310" height="90" fill="#f3f4f6"/>
  <circle cx="1095" cy="409" r="25" fill="#fef3c7" stroke="#f59e0b" stroke-width="2"/>
  <rect x="955" y="470" width="220" height="14" rx="2" fill="#1f2937"/>
  <rect x="955" y="492" width="260" height="10" rx="2" fill="#6b7280"/>
  <rect x="955" y="510" width="190" height="10" rx="2" fill="#6b7280"/>
  <rect x="955" y="535" width="60" height="16" rx="8" fill="#dcfce7"/>

  <!-- Stats bar -->
  <rect x="280" y="580" width="980" height="60" rx="12" fill="#ffffff" stroke="#e5e7eb"/>
  <rect x="300" y="595" width="80" height="30" rx="8" fill="#fef2f2"/>
  <text x="340" y="618" font-family="Arial" font-size="16" fill="#b91c1c" text-anchor="middle">42</text>
  <rect x="400" y="595" width="80" height="30" rx="8" fill="#fffbeb"/>
  <text x="440" y="618" font-family="Arial" font-size="16" fill="#d97706" text-anchor="middle">64</text>

  <!-- App title watermark -->
  <text x="640" y="680" font-family="Georgia, serif" font-size="24" fill="#b91c1c" text-anchor="middle" opacity="0.6">Di sản Văn hóa Cà Mau - Heritage Explorer</text>

  <!-- Decorative elements -->
  <circle cx="1220" cy="650" r="40" fill="none" stroke="#f59e0b" stroke-width="2" opacity="0.2"/>
  <circle cx="1220" cy="650" r="30" fill="none" stroke="#f59e0b" stroke-width="1" opacity="0.15"/>
</svg>
